<?xml version="1.0" encoding="UTF-8" standalone="no"?>
<!DOCTYPE svg PUBLIC "-//W3C//DTD SVG 1.1//EN"
 "http://www.w3.org/Graphics/SVG/1.1/DTD/svg11.dtd">
<!-- Generated by graphviz version 8.0.5 (0)
 -->
<!-- Title: G Pages: 1 -->
<svg width="798pt" height="262pt"
 viewBox="0.00 0.00 798.07 262.02" xmlns="http://www.w3.org/2000/svg" xmlns:xlink="http://www.w3.org/1999/xlink">
<g id="graph0" class="graph" transform="scale(1 1) rotate(0) translate(4 258.02)">
<title>G</title>
<polygon fill="white" stroke="none" points="-4,4 -4,-258.02 794.07,-258.02 794.07,4 -4,4"/>
<!-- core -->
<g id="node1" class="node">
<title>core</title>
<ellipse fill="none" stroke="#000000" cx="595.25" cy="-233.52" rx="32" ry="20.51"/>
<text text-anchor="middle" x="595.25" y="-230.72" font-family="Times,serif" font-size="14.00" fill="#000000">core</text>
</g>
<!-- machine -->
<g id="node2" class="node">
<title>machine</title>
<defs>
<radialGradient id="node2_r_0" cx="50%" cy="50%" r="75%" fx="50%" fy="50%">
<stop offset="0" style="stop-color:#0038fa;stop-opacity:1.;"/>
<stop offset="1" style="stop-color:#00208f;stop-opacity:1.;"/>
</radialGradient>
</defs>
<polygon fill="url(#node2_r_0)" stroke="#0038fa" points="228.37,-134.84 163.25,-152.36 98.14,-134.84 98.2,-106.51 228.31,-106.51 228.37,-134.84"/>
<text text-anchor="middle" x="163.25" y="-124.21" font-family="Times,serif" font-size="14.00" fill="#dbe3ff">machine</text>
</g>
<!-- core&#45;&gt;machine -->
<g id="edge1" class="edge">
<title>core&#45;&gt;machine</title>
<polygon fill="#00208f" stroke="none" stroke-width="5" points="564.21,-227.52 554.23,-225.77 543.09,-223.78 530.87,-221.56 517.65,-219.12 503.52,-216.45 488.56,-213.57 472.85,-210.48 456.47,-207.19 439.51,-203.7 422.05,-200.02 404.16,-196.15 385.94,-192.1 367.47,-187.88 348.82,-183.48 330.07,-178.92 311.32,-174.21 292.65,-169.34 274.13,-164.32 255.85,-159.16 237.88,-153.87 236.02,-153.3 234.14,-152.72 232.25,-152.11 230.35,-151.5 228.44,-150.87 226.53,-150.23 224.62,-149.58 222.71,-148.92 220.79,-148.25 218.88,-147.58 216.97,-146.89 215.07,-146.21 213.18,-145.51 211.29,-144.81 209.42,-144.11 207.56,-143.41 205.72,-142.71 203.89,-142 202.08,-141.3 200.29,-140.6 198.5,-145.27 200.31,-145.95 202.14,-146.63 203.99,-147.31 205.85,-148 207.74,-148.68 209.63,-149.36 211.54,-150.04 213.46,-150.71 215.39,-151.38 217.32,-152.05 219.26,-152.71 221.2,-153.36 223.14,-154 225.09,-154.63 227.02,-155.25 228.96,-155.86 230.89,-156.45 232.81,-157.03 234.72,-157.6 236.63,-158.16 254.7,-163.22 273.1,-168.15 291.72,-172.92 310.49,-177.55 329.33,-182.02 348.15,-186.34 366.88,-190.49 385.43,-194.47 403.71,-198.28 421.66,-201.91 439.18,-205.36 456.19,-208.63 472.62,-211.7 488.37,-214.58 503.37,-217.26 517.54,-219.74 530.79,-222.01 543.04,-224.06 554.21,-225.9 564.21,-227.52 564.21,-227.52"/>
<text text-anchor="middle" x="412" y="-181.71" font-family="Times,serif" font-size="14.00" fill="#00208f">mean</text>
</g>
<!-- program -->
<g id="node3" class="node">
<title>program</title>
<polygon fill="none" stroke="#008a88" points="484.49,-156.01 361.62,-156.01 330.02,-98.01 452.89,-98.01 484.49,-156.01"/>
<text text-anchor="middle" x="407.25" y="-124.21" font-family="Times,serif" font-size="14.00" fill="#008a88">program</text>
</g>
<!-- core&#45;&gt;program -->
<g id="edge2" class="edge">
<title>core&#45;&gt;program</title>
<polygon fill="#008a88" stroke="none" stroke-width="5" points="571.44,-219.28 567.11,-216.76 562.51,-214.08 557.65,-211.26 552.58,-208.31 547.31,-205.25 541.86,-202.08 536.25,-198.82 530.51,-195.48 524.66,-192.08 518.73,-188.63 512.73,-185.14 506.7,-181.63 500.64,-178.11 494.59,-174.6 488.57,-171.09 482.6,-167.62 476.7,-164.19 470.9,-160.82 465.22,-157.52 459.68,-154.3 457.25,-158.67 462.91,-161.67 468.72,-164.75 474.64,-167.9 480.67,-171.1 486.77,-174.33 492.92,-177.6 499.1,-180.88 505.29,-184.17 511.46,-187.44 517.59,-190.69 523.65,-193.91 529.62,-197.08 535.48,-200.19 541.21,-203.23 546.78,-206.19 552.17,-209.05 557.36,-211.8 562.31,-214.43 567.02,-216.93 571.44,-219.28 571.44,-219.28"/>
<text text-anchor="middle" x="543" y="-181.71" font-family="Times,serif" font-size="14.00" fill="#008a88">mean</text>
</g>
<!-- signature -->
<g id="node4" class="node">
<title>signature</title>
<ellipse fill="none" stroke="#000000" cx="658.25" cy="-127.01" rx="56.39" ry="20.51"/>
<text text-anchor="middle" x="658.25" y="-124.21" font-family="Times,serif" font-size="14.00" fill="#000000">signature</text>
</g>
<!-- core&#45;&gt;signature -->
<g id="edge11" class="edge">
<title>core&#45;&gt;signature</title>
<polygon fill="#000000" stroke="none" stroke-width="5" points="608.66,-215.13 610.31,-212.18 612.04,-209.09 613.83,-205.88 615.69,-202.57 617.6,-199.16 619.55,-195.67 621.54,-192.12 623.55,-188.53 625.58,-184.9 627.62,-181.26 629.66,-177.61 631.69,-173.98 633.71,-170.38 635.7,-166.82 637.66,-163.32 639.58,-159.89 641.45,-156.56 643.26,-153.33 645,-150.22 646.66,-147.24 646.66,-147.24 644.81,-150.1 642.87,-153.09 640.86,-156.2 638.78,-159.41 636.65,-162.71 634.47,-166.07 632.25,-169.5 630.01,-172.96 627.75,-176.46 625.47,-179.96 623.2,-183.47 620.94,-186.96 618.7,-190.42 616.49,-193.83 614.32,-197.19 612.2,-200.46 610.13,-203.65 608.13,-206.74 606.21,-209.71 604.38,-212.54 608.66,-215.13"/>
<text text-anchor="middle" x="646.5" y="-181.71" font-family="Times,serif" font-size="14.00" fill="#000000">grow</text>
</g>
<!-- test -->
<g id="node10" class="node">
<title>test</title>
<ellipse fill="none" stroke="#000000" cx="761.25" cy="-127.01" rx="28.81" ry="20.51"/>
<text text-anchor="middle" x="761.25" y="-124.21" font-family="Times,serif" font-size="14.00" fill="#000000">test</text>
</g>
<!-- core&#45;&gt;test -->
<g id="edge10" class="edge">
<title>core&#45;&gt;test</title>
<polygon fill="#000000" stroke="none" stroke-width="5" points="621.46,-222.68 623.58,-221.57 625.75,-220.43 627.96,-219.26 630.22,-218.06 632.51,-216.84 634.83,-215.58 637.18,-214.31 639.55,-213.01 641.94,-211.69 644.34,-210.36 646.75,-209 649.16,-207.64 651.58,-206.25 653.98,-204.86 656.38,-203.46 658.77,-202.05 661.13,-200.63 663.48,-199.21 665.79,-197.79 668.07,-196.36 671.79,-194.01 675.22,-191.8 678.41,-189.7 681.39,-187.72 684.17,-185.82 686.8,-183.99 689.3,-182.21 691.7,-180.48 694.03,-178.76 696.32,-177.05 698.6,-175.32 700.89,-173.56 703.24,-171.76 705.66,-169.89 708.19,-167.94 710.86,-165.88 713.69,-163.72 716.72,-161.41 719.97,-158.96 723.49,-156.34 724.4,-155.66 725.32,-154.97 726.24,-154.28 727.17,-153.59 728.1,-152.89 729.04,-152.19 729.98,-151.48 730.92,-150.77 731.86,-150.06 732.8,-149.35 733.74,-148.64 734.67,-147.93 735.61,-147.23 736.54,-146.52 737.46,-145.81 738.38,-145.11 739.3,-144.42 740.21,-143.72 741.11,-143.04 742,-142.36 742,-142.36 741.08,-143.01 740.16,-143.66 739.23,-144.32 738.29,-144.99 737.35,-145.66 736.4,-146.33 735.44,-147 734.49,-147.68 733.53,-148.35 732.56,-149.03 731.6,-149.71 730.64,-150.39 729.67,-151.06 728.71,-151.73 727.75,-152.4 726.8,-153.07 725.84,-153.73 724.9,-154.39 723.96,-155.04 723.02,-155.69 719.42,-158.19 716.07,-160.53 712.96,-162.73 710.05,-164.8 707.32,-166.76 704.72,-168.63 702.24,-170.41 699.83,-172.13 697.48,-173.81 695.16,-175.45 692.82,-177.07 690.45,-178.7 688.01,-180.34 685.46,-182.01 682.79,-183.74 679.96,-185.53 676.94,-187.4 673.7,-189.37 670.21,-191.45 666.44,-193.66 664.13,-195 661.78,-196.33 659.41,-197.66 657.01,-198.98 654.6,-200.3 652.17,-201.61 649.73,-202.91 647.28,-204.2 644.84,-205.48 642.4,-206.74 639.96,-207.99 637.54,-209.21 635.14,-210.42 632.77,-211.61 630.41,-212.77 628.09,-213.92 625.81,-215.03 623.57,-216.12 621.37,-217.18 619.23,-218.2 621.46,-222.68"/>
<text text-anchor="middle" x="716.5" y="-181.71" font-family="Times,serif" font-size="14.00" fill="#000000">grow</text>
</g>
<!-- feature -->
<g id="node6" class="node">
<title>feature</title>
<ellipse fill="none" stroke="#000000" cx="45.25" cy="-20.51" rx="45.25" ry="20.51"/>
<text text-anchor="middle" x="45.25" y="-17.71" font-family="Times,serif" font-size="14.00" fill="#000000">feature</text>
</g>
<!-- machine&#45;&gt;feature -->
<g id="edge5" class="edge">
<title>machine&#45;&gt;feature</title>
<path fill="none" stroke="#00208f" stroke-width="3" d="M140.78,-106.11C118.98,-86.8 86.22,-57.78 65.29,-39.25"/>
<text text-anchor="middle" x="119.88" y="-66.71" font-family="Times,serif" font-size="14.00" fill="#00208f">has</text>
</g>
<!-- component -->
<g id="node7" class="node">
<title>component</title>
<ellipse fill="none" stroke="#000000" cx="174.25" cy="-20.51" rx="65.94" ry="20.51"/>
<text text-anchor="middle" x="174.25" y="-17.71" font-family="Times,serif" font-size="14.00" fill="#000000">component</text>
</g>
<!-- machine&#45;&gt;component -->
<g id="edge4" class="edge">
<title>machine&#45;&gt;component</title>
<path fill="none" stroke="#00208f" stroke-width="3" d="M165.32,-106.36C167.28,-87.79 170.19,-60.08 172.16,-41.43"/>
<text text-anchor="middle" x="181.88" y="-66.71" font-family="Times,serif" font-size="14.00" fill="#00208f">has</text>
</g>
<!-- function -->
<g id="node9" class="node">
<title>function</title>
<ellipse fill="none" stroke="#000000" cx="331.25" cy="-20.51" rx="52.15" ry="20.51"/>
<text text-anchor="middle" x="331.25" y="-17.71" font-family="Times,serif" font-size="14.00" fill="#000000">function</text>
</g>
<!-- program&#45;&gt;function -->
<g id="edge3" class="edge">
<title>program&#45;&gt;function</title>
<polygon fill="#000000" stroke="none" stroke-width="5" points="374.95,-97.74 374.17,-96.88 373.38,-96 372.61,-95.12 371.84,-94.23 371.07,-93.34 370.3,-92.44 369.55,-91.54 368.79,-90.63 368.05,-89.72 367.31,-88.81 366.58,-87.89 365.86,-86.96 365.15,-86.04 364.44,-85.11 363.75,-84.18 363.07,-83.25 362.4,-82.31 361.74,-81.38 361.09,-80.44 360.46,-79.51 359.24,-77.65 358.05,-75.76 356.88,-73.83 355.74,-71.87 354.62,-69.89 353.52,-67.88 352.46,-65.86 351.41,-63.82 350.4,-61.78 349.41,-59.74 348.45,-57.69 347.51,-55.66 346.61,-53.63 345.73,-51.63 344.88,-49.64 344.06,-47.68 343.27,-45.75 342.52,-43.85 341.79,-42 341.09,-40.18 336.49,-42.14 337.33,-43.92 338.21,-45.75 339.12,-47.61 340.06,-49.51 341.04,-51.43 342.05,-53.38 343.09,-55.35 344.16,-57.33 345.25,-59.33 346.38,-61.32 347.54,-63.32 348.72,-65.31 349.93,-67.29 351.16,-69.26 352.42,-71.21 353.7,-73.14 355.01,-75.04 356.34,-76.91 357.69,-78.73 359.05,-80.52 359.77,-81.42 360.49,-82.32 361.23,-83.21 361.97,-84.11 362.73,-84.99 363.5,-85.88 364.27,-86.76 365.06,-87.63 365.85,-88.51 366.65,-89.37 367.46,-90.24 368.27,-91.09 369.09,-91.95 369.92,-92.79 370.75,-93.63 371.58,-94.47 372.42,-95.3 373.26,-96.12 374.1,-96.94 374.95,-97.74 374.95,-97.74"/>
<text text-anchor="middle" x="379" y="-66.71" font-family="Times,serif" font-size="14.00" fill="#000000">mean</text>
</g>
<!-- file -->
<g id="node11" class="node">
<title>file</title>
<ellipse fill="none" stroke="#000000" cx="553.25" cy="-20.51" rx="27" ry="20.51"/>
<text text-anchor="middle" x="553.25" y="-17.71" font-family="Times,serif" font-size="14.00" fill="#000000">file</text>
</g>
<!-- program&#45;&gt;file -->
<g id="edge8" class="edge">
<title>program&#45;&gt;file</title>
<path fill="none" stroke="#008a88" stroke-width="2" stroke-dasharray="5,2" d="M429.15,-97.65C442.36,-80.77 457.42,-62.05 461.5,-59.01 477.62,-47.04 498.11,-38.19 515.63,-32.1"/>
<polygon fill="#008a88" stroke="#008a88" stroke-width="2" points="517.33,-34.57 525.76,-28.15 515.17,-27.92 517.33,-34.57"/>
<text text-anchor="middle" x="480.63" y="-66.71" font-family="Times,serif" font-size="14.00" fill="#008a88">make</text>
</g>
<!-- data -->
<g id="node12" class="node">
<title>data</title>
<ellipse fill="none" stroke="#000000" cx="451.25" cy="-20.51" rx="32" ry="20.51"/>
<text text-anchor="middle" x="451.25" y="-17.71" font-family="Times,serif" font-size="14.00" fill="#000000">data</text>
</g>
<!-- program&#45;&gt;data -->
<g id="edge9" class="edge">
<title>program&#45;&gt;data</title>
<path fill="none" stroke="#008a88" stroke-width="2" stroke-dasharray="5,2" d="M400.96,-97.78C399.56,-85.34 399.88,-70.9 405.5,-59.01 408.4,-52.9 412.82,-47.46 417.81,-42.73"/>
<polygon fill="#008a88" stroke="#008a88" stroke-width="2" points="420.28,-44.6 425.82,-35.57 415.86,-39.18 420.28,-44.6"/>
<text text-anchor="middle" x="424.63" y="-66.71" font-family="Times,serif" font-size="14.00" fill="#008a88">make</text>
</g>
<!-- note -->
<g id="node5" class="node">
<title>note</title>
<ellipse fill="none" stroke="#000000" cx="279.25" cy="-127.01" rx="32.53" ry="20.51"/>
<text text-anchor="middle" x="279.25" y="-124.21" font-family="Times,serif" font-size="14.00" fill="#000000">note</text>
</g>
<!-- note&#45;&gt;function -->
<g id="edge12" class="edge">
<title>note&#45;&gt;function</title>
<polygon fill="#000000" stroke="none" stroke-width="5" points="279.41,-105.99 279.24,-103.88 279.1,-101.73 279,-99.51 278.92,-97.25 278.89,-94.94 278.89,-92.59 278.94,-90.22 279.04,-87.82 279.2,-85.4 279.41,-82.97 279.69,-80.53 280.03,-78.09 280.44,-75.67 280.92,-73.26 281.48,-70.87 282.12,-68.5 282.84,-66.17 283.66,-63.88 284.57,-61.64 285.57,-59.44 286.19,-58.22 286.86,-57.01 287.55,-55.81 288.29,-54.62 289.06,-53.46 289.86,-52.3 290.69,-51.16 291.55,-50.04 292.44,-48.94 293.35,-47.85 294.29,-46.78 295.25,-45.72 296.22,-44.69 297.22,-43.67 298.23,-42.67 299.26,-41.69 300.3,-40.73 301.34,-39.79 302.4,-38.86 303.47,-37.96 303.47,-37.96 302.34,-38.79 301.23,-39.65 300.12,-40.52 299.01,-41.42 297.92,-42.33 296.84,-43.27 295.77,-44.23 294.72,-45.2 293.69,-46.2 292.67,-47.22 291.67,-48.27 290.7,-49.33 289.75,-50.41 288.83,-51.51 287.93,-52.64 287.07,-53.78 286.23,-54.95 285.43,-56.14 284.67,-57.35 283.94,-58.58 282.75,-60.78 281.66,-63.04 280.66,-65.36 279.75,-67.73 278.92,-70.13 278.18,-72.57 277.52,-75.03 276.93,-77.51 276.42,-80.01 275.97,-82.51 275.59,-85 275.26,-87.49 275,-89.96 274.78,-92.41 274.62,-94.83 274.5,-97.21 274.42,-99.55 274.39,-101.84 274.38,-104.07 274.41,-106.22 279.41,-105.99"/>
<text text-anchor="middle" x="302.5" y="-66.71" font-family="Times,serif" font-size="14.00" fill="#000000">grow</text>
</g>
<!-- folder -->
<g id="node8" class="node">
<title>folder</title>
<ellipse fill="none" stroke="#000000" cx="543.25" cy="-127.01" rx="40.48" ry="20.51"/>
<text text-anchor="middle" x="543.25" y="-124.21" font-family="Times,serif" font-size="14.00" fill="#000000">folder</text>
</g>
<!-- folder&#45;&gt;file -->
<g id="edge6" class="edge">
<title>folder&#45;&gt;file</title>
<path fill="none" stroke="#000000" d="M545.5,-106.32C546.4,-98.18 547.42,-88.65 548.25,-80.01 549.13,-70.95 550.01,-61.09 550.77,-52.1"/>
<polygon fill="#000000" stroke="#000000" points="554.33,-52.54 551.68,-42.29 547.36,-51.96 554.33,-52.54"/>
<text text-anchor="middle" x="561.88" y="-66.71" font-family="Times,serif" font-size="14.00" fill="#000000">use</text>
</g>
<!-- folder&#45;&gt;data -->
<g id="edge7" class="edge">
<title>folder&#45;&gt;data</title>
<path fill="none" stroke="#000000" d="M534.05,-106.77C526.69,-92.6 515.45,-73.37 502.25,-59.01 496.45,-52.69 489.45,-46.74 482.51,-41.52"/>
<polygon fill="#000000" stroke="#000000" points="485.03,-38.3 474.86,-35.33 480.95,-43.99 485.03,-38.3"/>
<text text-anchor="middle" x="529.88" y="-66.71" font-family="Times,serif" font-size="14.00" fill="#000000">use</text>
</g>
</g>
</svg>
