<?xml version="1.0" encoding="UTF-8" standalone="no"?>
<!DOCTYPE svg PUBLIC "-//W3C//DTD SVG 1.1//EN"
 "http://www.w3.org/Graphics/SVG/1.1/DTD/svg11.dtd">
<!-- Generated by graphviz version 8.0.5 (20230430.1635)
 -->
<!-- Title: G Pages: 1 -->
<svg width="125pt" height="188pt"
 viewBox="0.00 0.00 125.00 188.00" xmlns="http://www.w3.org/2000/svg" xmlns:xlink="http://www.w3.org/1999/xlink">
<g id="graph0" class="graph" transform="scale(1 1) rotate(0) translate(4 184)">
<title>G</title>
<polygon fill="white" stroke="none" points="-4,4 -4,-184 121,-184 121,4 -4,4"/>
<!-- a -->
<g id="node1" class="node">
<title>a</title>
<ellipse fill="#009900" stroke="#009900" cx="72" cy="-162" rx="18" ry="18"/>
<text text-anchor="middle" x="72" y="-155.82" font-family="Times,serif" font-size="14.00" fill="#ffffff">a</text>
</g>
<!-- b -->
<g id="node2" class="node">
<title>b</title>
<ellipse fill="#009900" stroke="#009900" cx="45" cy="-90" rx="18" ry="18"/>
<text text-anchor="middle" x="45" y="-83.83" font-family="Times,serif" font-size="14.00" fill="#ffffff">b</text>
</g>
<!-- a&#45;&gt;b -->
<g id="edge1" class="edge">
<title>a&#45;&gt;b</title>
<path fill="none" stroke="#000000" stroke-dasharray="5,2" d="M65.74,-144.76C61.38,-133.46 55.58,-118.44 51.23,-107.15"/>
</g>
<!-- e -->
<g id="node5" class="node">
<title>e</title>
<ellipse fill="#009900" stroke="#009900" cx="99" cy="-90" rx="18" ry="18"/>
<text text-anchor="middle" x="99" y="-83.83" font-family="Times,serif" font-size="14.00" fill="#ffffff">e</text>
</g>
<!-- a&#45;&gt;e -->
<g id="edge4" class="edge">
<title>a&#45;&gt;e</title>
<path fill="none" stroke="#000000" stroke-dasharray="5,2" d="M78.26,-144.76C82.62,-133.46 88.42,-118.44 92.77,-107.15"/>
</g>
<!-- c -->
<g id="node3" class="node">
<title>c</title>
<ellipse fill="#009900" stroke="#009900" cx="18" cy="-18" rx="18" ry="18"/>
<text text-anchor="middle" x="18" y="-11.82" font-family="Times,serif" font-size="14.00" fill="#ffffff">c</text>
</g>
<!-- b&#45;&gt;c -->
<g id="edge2" class="edge">
<title>b&#45;&gt;c</title>
<path fill="none" stroke="#000000" stroke-dasharray="5,2" d="M38.74,-72.76C34.38,-61.46 28.58,-46.44 24.23,-35.15"/>
</g>
<!-- d -->
<g id="node4" class="node">
<title>d</title>
<ellipse fill="#009900" stroke="#009900" cx="72" cy="-18" rx="18" ry="18"/>
<text text-anchor="middle" x="72" y="-11.82" font-family="Times,serif" font-size="14.00" fill="#ffffff">d</text>
</g>
<!-- b&#45;&gt;d -->
<g id="edge3" class="edge">
<title>b&#45;&gt;d</title>
<path fill="none" stroke="#000000" stroke-dasharray="5,2" d="M51.26,-72.76C55.62,-61.46 61.42,-46.44 65.77,-35.15"/>
</g>
</g>
</svg>
