<?xml version="1.0" encoding="UTF-8" standalone="no"?>
<!DOCTYPE svg PUBLIC "-//W3C//DTD SVG 1.1//EN"
 "http://www.w3.org/Graphics/SVG/1.1/DTD/svg11.dtd">
<!-- Generated by graphviz version 8.0.5 (20230430.1635)
 -->
<!-- Title: G Pages: 1 -->
<svg width="1106pt" height="570pt"
 viewBox="0.00 0.00 1106.21 569.55" xmlns="http://www.w3.org/2000/svg" xmlns:xlink="http://www.w3.org/1999/xlink">
<g id="graph0" class="graph" transform="scale(1 1) rotate(0) translate(4 565.55)">
<title>G</title>
<polygon fill="white" stroke="none" points="-4,4 -4,-565.55 1102.21,-565.55 1102.21,4 -4,4"/>
<!-- project1 -->
<g id="node1" class="node">
<title>project1</title>
<defs>
<radialGradient id="node1_r_0" cx="50%" cy="50%" r="75%" fx="50%" fy="50%">
<stop offset="0" style="stop-color:#ffff00;stop-opacity:1.;"/>
<stop offset="1" style="stop-color:#008b00;stop-opacity:1.;"/>
</radialGradient>
</defs>
<ellipse fill="url(#node1_r_0)" stroke="#ffff00" cx="624.46" cy="-432.15" rx="45.25" ry="45.25"/>
<text text-anchor="middle" x="624.46" y="-433.1" font-family="Times,serif" font-size="14.00" fill="#006400">My First</text>
<text text-anchor="middle" x="624.46" y="-418.85" font-family="Times,serif" font-size="14.00" fill="#006400">Project</text>
</g>
<!-- project2 -->
<g id="node2" class="node">
<title>project2</title>
<defs>
<radialGradient id="node2_r_1" cx="50%" cy="50%" r="75%" fx="50%" fy="50%">
<stop offset="0" style="stop-color:#ffff00;stop-opacity:1.;"/>
<stop offset="1" style="stop-color:#008b00;stop-opacity:1.;"/>
</radialGradient>
</defs>
<ellipse fill="url(#node2_r_1)" stroke="#ffff00" cx="743.46" cy="-432.15" rx="55.97" ry="55.97"/>
<text text-anchor="middle" x="743.46" y="-425.98" font-family="Times,serif" font-size="14.00" fill="#006400">Third Project</text>
</g>
<!-- project1&#45;&gt;project2 -->
<g id="edge3" class="edge">
<title>project1&#45;&gt;project2</title>
<polygon fill="#008b00" stroke="none" stroke-width="5" points="670.02,-434.65 670.88,-434.53 671.74,-434.4 672.6,-434.28 673.46,-434.15 674.32,-434.03 675.18,-433.9 676.04,-433.78 676.9,-433.65 677.76,-433.53 678.62,-433.4 679.48,-433.28 680.34,-433.15 681.21,-433.03 682.07,-432.9 682.93,-432.78 683.79,-432.65 684.65,-432.53 685.51,-432.4 686.37,-432.28 687.23,-432.15 687.23,-432.15 686.37,-432.03 685.51,-431.9 684.65,-431.78 683.79,-431.65 682.93,-431.53 682.07,-431.4 681.21,-431.28 680.34,-431.15 679.48,-431.03 678.62,-430.9 677.76,-430.78 676.9,-430.65 676.04,-430.53 675.18,-430.4 674.32,-430.28 673.46,-430.15 672.6,-430.03 671.74,-429.9 670.88,-429.78 670.02,-429.65 670.02,-434.65"/>
</g>
<!-- project3 -->
<g id="node3" class="node">
<title>project3</title>
<defs>
<radialGradient id="node3_r_2" cx="50%" cy="50%" r="75%" fx="50%" fy="50%">
<stop offset="0" style="stop-color:#ffff00;stop-opacity:1.;"/>
<stop offset="1" style="stop-color:#008b00;stop-opacity:1.;"/>
</radialGradient>
</defs>
<ellipse fill="url(#node3_r_2)" stroke="#ffff00" cx="874.46" cy="-432.15" rx="57.4" ry="57.4"/>
<text text-anchor="middle" x="874.46" y="-425.98" font-family="Times,serif" font-size="14.00" fill="#006400">Third Library</text>
</g>
<!-- project1&#45;&gt;project3 -->
<g id="edge4" class="edge">
<title>project1&#45;&gt;project3</title>
<polygon fill="#008b00" stroke="none" stroke-width="5" points="645.13,-473.08 646.74,-475.19 648.41,-477.31 650.13,-479.42 651.9,-481.52 653.72,-483.6 655.58,-485.66 657.5,-487.7 659.46,-489.7 661.48,-491.66 663.53,-493.58 665.64,-495.45 667.79,-497.27 669.99,-499.03 672.24,-500.72 674.53,-502.35 676.87,-503.9 679.25,-505.37 681.68,-506.76 684.15,-508.06 686.66,-509.26 693.33,-512.19 699.67,-514.79 705.72,-517.06 711.53,-518.99 717.12,-520.6 722.54,-521.89 727.81,-522.85 732.99,-523.5 738.09,-523.83 743.15,-523.86 748.22,-523.57 753.31,-522.99 758.48,-522.11 763.75,-520.94 769.16,-519.48 774.75,-517.74 780.56,-515.73 786.63,-513.45 792.99,-510.89 799.68,-508.08 801.97,-507.05 804.24,-505.96 806.48,-504.8 808.7,-503.58 810.89,-502.3 813.05,-500.96 815.18,-499.57 817.29,-498.13 819.36,-496.64 821.4,-495.11 823.42,-493.54 825.4,-491.93 827.36,-490.29 829.28,-488.61 831.17,-486.91 833.02,-485.19 834.85,-483.44 836.63,-481.67 838.39,-479.89 840.11,-478.1 840.11,-478.1 838.35,-479.85 836.56,-481.59 834.73,-483.32 832.87,-485.02 830.98,-486.7 829.06,-488.36 827.1,-489.98 825.12,-491.58 823.11,-493.13 821.06,-494.65 819,-496.13 816.9,-497.56 814.78,-498.95 812.63,-500.28 810.46,-501.56 808.26,-502.78 806.04,-503.94 803.79,-505.04 801.53,-506.07 799.24,-507.03 792.51,-509.68 786.12,-512.08 780.04,-514.22 774.23,-516.09 768.66,-517.68 763.3,-518.99 758.09,-520.03 753.02,-520.77 748.04,-521.23 743.12,-521.39 738.21,-521.26 733.27,-520.83 728.27,-520.09 723.17,-519.04 717.92,-517.67 712.5,-515.97 706.86,-513.95 700.96,-511.59 694.77,-508.89 688.27,-505.85 685.9,-504.65 683.59,-503.37 681.31,-502 679.07,-500.54 676.88,-499.01 674.72,-497.41 672.61,-495.74 670.54,-494 668.51,-492.21 666.52,-490.36 664.58,-488.47 662.69,-486.54 660.83,-484.56 659.02,-482.55 657.26,-480.52 655.55,-478.46 653.87,-476.39 652.25,-474.3 650.68,-472.2 649.14,-470.09 645.13,-473.08"/>
</g>
<!-- component1 -->
<g id="node6" class="node">
<title>component1</title>
<defs>
<radialGradient id="node6_r_3" cx="50%" cy="50%" r="75%" fx="50%" fy="50%">
<stop offset="0" style="stop-color:#9370db;stop-opacity:1.;"/>
<stop offset="1" style="stop-color:#ff1493;stop-opacity:1.;"/>
</radialGradient>
</defs>
<polygon fill="url(#node6_r_3)" stroke="#9370db" points="542.21,-338.75 434.71,-338.75 434.71,-334.75 430.71,-334.75 430.71,-330.75 434.71,-330.75 434.71,-310.75 430.71,-310.75 430.71,-306.75 434.71,-306.75 434.71,-302.75 542.21,-302.75 542.21,-338.75"/>
<polyline fill="none" stroke="#9370db" points="434.71,-334.75 438.71,-334.75 438.71,-330.75 434.71,-330.75"/>
<polyline fill="none" stroke="#9370db" points="434.71,-310.75 438.71,-310.75 438.71,-306.75 434.71,-306.75"/>
<text text-anchor="middle" x="488.46" y="-314.57" font-family="Times,serif" font-size="14.00" fill="#8b0000">Java Component</text>
</g>
<!-- project1&#45;&gt;component1 -->
<g id="edge5" class="edge">
<title>project1&#45;&gt;component1</title>
<path fill="none" stroke="#008b00" d="M589.44,-402.98C567.54,-385.36 539.62,-362.9 518.69,-346.07"/>
<polygon fill="#008b00" stroke="#008b00" points="521.17,-342.77 511.19,-339.23 516.79,-348.22 521.17,-342.77"/>
</g>
<!-- component2 -->
<g id="node7" class="node">
<title>component2</title>
<defs>
<radialGradient id="node7_r_4" cx="50%" cy="50%" r="75%" fx="50%" fy="50%">
<stop offset="0" style="stop-color:#9370db;stop-opacity:1.;"/>
<stop offset="1" style="stop-color:#ff1493;stop-opacity:1.;"/>
</radialGradient>
</defs>
<polygon fill="url(#node7_r_4)" stroke="#9370db" points="774.46,-338.75 650.46,-338.75 650.46,-334.75 646.46,-334.75 646.46,-330.75 650.46,-330.75 650.46,-310.75 646.46,-310.75 646.46,-306.75 650.46,-306.75 650.46,-302.75 774.46,-302.75 774.46,-338.75"/>
<polyline fill="none" stroke="#9370db" points="650.46,-334.75 654.46,-334.75 654.46,-330.75 650.46,-330.75"/>
<polyline fill="none" stroke="#9370db" points="650.46,-310.75 654.46,-310.75 654.46,-306.75 650.46,-306.75"/>
<text text-anchor="middle" x="712.46" y="-314.57" font-family="Times,serif" font-size="14.00" fill="#8b0000">Clojure Component</text>
</g>
<!-- project1&#45;&gt;component2 -->
<g id="edge13" class="edge">
<title>project1&#45;&gt;component2</title>
<path fill="none" stroke="#008b00" d="M652.55,-396.24C665.21,-380.49 679.91,-362.22 691.57,-347.72"/>
<polygon fill="#008b00" stroke="#008b00" points="694.86,-350.21 698.4,-340.23 689.41,-345.83 694.86,-350.21"/>
</g>
<!-- feature1 -->
<g id="node4" class="node">
<title>feature1</title>
<defs>
<radialGradient id="node4_r_5" cx="50%" cy="50%" r="75%" fx="50%" fy="50%">
<stop offset="0" style="stop-color:#8c510a;stop-opacity:1.;"/>
<stop offset="1" style="stop-color:#543005;stop-opacity:1.;"/>
</radialGradient>
</defs>
<polygon fill="url(#node4_r_5)" stroke="#8c510a" points="568.46,-525.6 571.77,-525.7 575.04,-525.85 578.27,-526.04 581.44,-526.29 584.53,-526.58 587.54,-526.92 590.45,-527.3 593.25,-527.73 595.94,-528.2 598.49,-528.71 600.91,-529.27 603.18,-529.86 605.3,-530.49 607.26,-531.16 609.06,-531.86 610.69,-532.59 612.15,-533.35 613.43,-534.14 614.53,-534.96 615.46,-535.8 616.21,-536.66 616.79,-537.54 617.19,-538.44 617.42,-539.35 617.48,-540.27 617.38,-541.2 617.11,-542.14 616.7,-543.08 616.14,-544.02 615.43,-544.96 614.59,-545.9 613.62,-546.83 612.53,-547.76 611.32,-548.67 610.01,-549.56 608.6,-550.44 607.09,-551.3 605.5,-552.14 603.83,-552.96 602.09,-553.75 600.29,-554.51 598.43,-555.25 596.51,-555.95 594.55,-556.61 592.55,-557.24 590.51,-557.84 588.44,-558.39 586.34,-558.91 584.22,-559.38 582.08,-559.8 579.93,-560.19 577.76,-560.53 575.57,-560.82 573.38,-561.06 571.19,-561.26 568.98,-561.4 566.78,-561.5 564.57,-561.55 562.36,-561.55 560.15,-561.5 557.94,-561.4 555.74,-561.26 553.54,-561.06 551.35,-560.82 549.17,-560.53 547,-560.19 544.84,-559.8 542.7,-559.38 540.58,-558.91 538.48,-558.39 536.41,-557.84 534.37,-557.24 532.37,-556.61 530.41,-555.95 528.5,-555.25 526.63,-554.51 524.83,-553.75 523.09,-552.96 521.42,-552.14 519.83,-551.3 518.33,-550.44 516.91,-549.56 515.6,-548.67 514.4,-547.76 513.3,-546.83 512.33,-545.9 511.49,-544.96 510.79,-544.02 510.22,-543.08 509.81,-542.14 509.55,-541.2 509.44,-540.27 509.51,-539.35 509.74,-538.44 510.14,-537.54 510.71,-536.66 511.46,-535.8 512.39,-534.96 513.5,-534.14 514.78,-533.35 516.23,-532.59 517.86,-531.86 519.66,-531.16 521.62,-530.49 523.74,-529.86 526.01,-529.27 528.43,-528.71 530.99,-528.2 533.67,-527.73 536.47,-527.3 539.38,-526.92 542.39,-526.58 545.48,-526.29 548.65,-526.04 551.88,-525.85 555.15,-525.7 558.46,-525.6 561.79,-525.55 565.13,-525.55 568.46,-525.6"/>
<text text-anchor="middle" x="563.46" y="-537.38" font-family="Times,serif" font-size="14.00" fill="#fddbc7">How to do?</text>
</g>
<!-- feature1&#45;&gt;project1 -->
<g id="edge1" class="edge">
<title>feature1&#45;&gt;project1</title>
<polygon fill="#543005" stroke="none" stroke-width="5" points="575.18,-526.68 576.3,-524.45 577.47,-522.13 578.68,-519.73 579.94,-517.24 581.23,-514.69 582.55,-512.06 583.91,-509.38 585.29,-506.65 586.69,-503.87 588.11,-501.05 589.55,-498.21 591,-495.34 592.46,-492.45 593.92,-489.55 595.39,-486.65 596.85,-483.75 598.31,-480.87 599.75,-478 601.19,-475.15 602.61,-472.34 602.61,-472.34 600.96,-475.03 599.3,-477.74 597.62,-480.48 595.93,-483.24 594.24,-486.01 592.54,-488.78 590.84,-491.55 589.15,-494.31 587.47,-497.05 585.8,-499.77 584.16,-502.46 582.53,-505.11 580.93,-507.72 579.36,-510.28 577.83,-512.79 576.33,-515.23 574.88,-517.6 573.47,-519.9 572.11,-522.12 570.81,-524.24 575.18,-526.68"/>
</g>
<!-- feature2 -->
<g id="node5" class="node">
<title>feature2</title>
<defs>
<radialGradient id="node5_r_6" cx="50%" cy="50%" r="75%" fx="50%" fy="50%">
<stop offset="0" style="stop-color:#8c510a;stop-opacity:1.;"/>
<stop offset="1" style="stop-color:#543005;stop-opacity:1.;"/>
</radialGradient>
</defs>
<polygon fill="url(#node5_r_6)" stroke="#8c510a" points="691.23,-525.6 694.38,-525.7 697.5,-525.85 700.58,-526.04 703.59,-526.29 706.54,-526.58 709.41,-526.92 712.18,-527.3 714.85,-527.73 717.41,-528.2 719.85,-528.71 722.15,-529.27 724.32,-529.86 726.34,-530.49 728.2,-531.16 729.92,-531.86 731.47,-532.59 732.86,-533.35 734.08,-534.14 735.13,-534.96 736.01,-535.8 736.73,-536.66 737.28,-537.54 737.66,-538.44 737.88,-539.35 737.94,-540.27 737.84,-541.2 737.59,-542.14 737.2,-543.08 736.66,-544.02 735.99,-544.96 735.19,-545.9 734.26,-546.83 733.22,-547.76 732.07,-548.67 730.82,-549.56 729.47,-550.44 728.04,-551.3 726.52,-552.14 724.93,-552.96 723.28,-553.75 721.56,-554.51 719.78,-555.25 717.96,-555.95 716.09,-556.61 714.18,-557.24 712.24,-557.84 710.27,-558.39 708.27,-558.91 706.25,-559.38 704.21,-559.8 702.15,-560.19 700.08,-560.53 698.01,-560.82 695.92,-561.06 693.82,-561.26 691.72,-561.4 689.62,-561.5 687.51,-561.55 685.41,-561.55 683.3,-561.5 681.2,-561.4 679.1,-561.26 677.01,-561.06 674.92,-560.82 672.84,-560.53 670.77,-560.19 668.72,-559.8 666.68,-559.38 664.66,-558.91 662.66,-558.39 660.68,-557.84 658.74,-557.24 656.83,-556.61 654.97,-555.95 653.14,-555.25 651.37,-554.51 649.65,-553.75 647.99,-552.96 646.4,-552.14 644.88,-551.3 643.45,-550.44 642.1,-549.56 640.85,-548.67 639.7,-547.76 638.66,-546.83 637.74,-545.9 636.94,-544.96 636.26,-544.02 635.73,-543.08 635.33,-542.14 635.08,-541.2 634.98,-540.27 635.04,-539.35 635.26,-538.44 635.65,-537.54 636.19,-536.66 636.91,-535.8 637.79,-534.96 638.85,-534.14 640.07,-533.35 641.45,-532.59 643.01,-531.86 644.72,-531.16 646.59,-530.49 648.61,-529.86 650.77,-529.27 653.08,-528.71 655.51,-528.2 658.07,-527.73 660.74,-527.3 663.51,-526.92 666.38,-526.58 669.33,-526.29 672.35,-526.04 675.42,-525.85 678.54,-525.7 681.7,-525.6 684.87,-525.55 688.05,-525.55 691.23,-525.6"/>
<text text-anchor="middle" x="686.46" y="-537.38" font-family="Times,serif" font-size="14.00" fill="#fddbc7">What is it?</text>
</g>
<!-- feature2&#45;&gt;project1 -->
<g id="edge2" class="edge">
<title>feature2&#45;&gt;project1</title>
<polygon fill="#543005" stroke="none" stroke-width="5" points="678.95,-524.23 677.62,-522.08 676.23,-519.85 674.79,-517.53 673.3,-515.13 671.77,-512.67 670.19,-510.14 668.59,-507.55 666.95,-504.92 665.28,-502.24 663.6,-499.53 661.89,-496.78 660.17,-494.01 658.44,-491.23 656.7,-488.44 654.97,-485.64 653.23,-482.85 651.51,-480.08 649.79,-477.32 648.09,-474.58 646.41,-471.88 646.41,-471.88 647.86,-474.71 649.34,-477.57 650.82,-480.46 652.32,-483.37 653.82,-486.29 655.33,-489.22 656.83,-492.14 658.33,-495.06 659.82,-497.95 661.3,-500.83 662.76,-503.67 664.2,-506.48 665.62,-509.23 667.01,-511.94 668.38,-514.59 669.7,-517.17 670.99,-519.68 672.24,-522.11 673.44,-524.45 674.6,-526.69 678.95,-524.23"/>
</g>
<!-- package1 -->
<g id="node8" class="node">
<title>package1</title>
<defs>
<radialGradient id="node8_r_7" cx="50%" cy="50%" r="75%" fx="50%" fy="50%">
<stop offset="0" style="stop-color:#ffff00;stop-opacity:1.;"/>
<stop offset="1" style="stop-color:#ffa500;stop-opacity:1.;"/>
</radialGradient>
</defs>
<polygon fill="url(#node8_r_7)" stroke="#ffff00" points="295.01,-254.31 246.46,-266.75 197.92,-254.31 197.96,-234.19 294.96,-234.19 295.01,-254.31"/>
<text text-anchor="middle" x="246.46" y="-242.57" font-family="Times,serif" font-size="14.00" fill="#ff4500">Java Src</text>
</g>
<!-- component1&#45;&gt;package1 -->
<g id="edge6" class="edge">
<title>component1&#45;&gt;package1</title>
<path fill="none" stroke="#ff1493" d="M434.45,-304.13C390.46,-291.4 329.23,-273.69 288.75,-261.98"/>
<polygon fill="#ff1493" stroke="#ff1493" points="290,-258.41 279.42,-258.99 288.06,-265.14 290,-258.41"/>
</g>
<!-- package2 -->
<g id="node9" class="node">
<title>package2</title>
<defs>
<radialGradient id="node9_r_8" cx="50%" cy="50%" r="75%" fx="50%" fy="50%">
<stop offset="0" style="stop-color:#ffff00;stop-opacity:1.;"/>
<stop offset="1" style="stop-color:#ffa500;stop-opacity:1.;"/>
</radialGradient>
</defs>
<polygon fill="url(#node9_r_8)" stroke="#ffff00" points="541.13,-254.31 488.46,-266.75 435.79,-254.31 435.84,-234.19 541.09,-234.19 541.13,-254.31"/>
<text text-anchor="middle" x="488.46" y="-242.57" font-family="Times,serif" font-size="14.00" fill="#ff4500">Java Test</text>
</g>
<!-- component1&#45;&gt;package2 -->
<g id="edge12" class="edge">
<title>component1&#45;&gt;package2</title>
<path fill="none" stroke="#ff1493" d="M488.46,-302.45C488.46,-294.99 488.46,-286.07 488.46,-277.72"/>
<polygon fill="#ff1493" stroke="#ff1493" points="491.96,-277.85 488.46,-267.85 484.96,-277.85 491.96,-277.85"/>
</g>
<!-- package3 -->
<g id="node10" class="node">
<title>package3</title>
<defs>
<radialGradient id="node10_r_9" cx="50%" cy="50%" r="75%" fx="50%" fy="50%">
<stop offset="0" style="stop-color:#ffff00;stop-opacity:1.;"/>
<stop offset="1" style="stop-color:#ffa500;stop-opacity:1.;"/>
</radialGradient>
</defs>
<polygon fill="url(#node10_r_9)" stroke="#ffff00" points="773.98,-254.31 712.46,-266.75 650.94,-254.31 651,-234.19 773.92,-234.19 773.98,-254.31"/>
<text text-anchor="middle" x="712.46" y="-242.57" font-family="Times,serif" font-size="14.00" fill="#ff4500">Clojure Src</text>
</g>
<!-- component2&#45;&gt;package3 -->
<g id="edge14" class="edge">
<title>component2&#45;&gt;package3</title>
<path fill="none" stroke="#ff1493" d="M712.46,-302.45C712.46,-294.99 712.46,-286.07 712.46,-277.72"/>
<polygon fill="#ff1493" stroke="#ff1493" points="715.96,-277.85 712.46,-267.85 708.96,-277.85 715.96,-277.85"/>
</g>
<!-- package4 -->
<g id="node11" class="node">
<title>package4</title>
<defs>
<radialGradient id="node11_r_10" cx="50%" cy="50%" r="75%" fx="50%" fy="50%">
<stop offset="0" style="stop-color:#ffff00;stop-opacity:1.;"/>
<stop offset="1" style="stop-color:#ffa500;stop-opacity:1.;"/>
</radialGradient>
</defs>
<polygon fill="url(#node11_r_10)" stroke="#ffff00" points="943.11,-254.31 877.46,-266.75 811.82,-254.31 811.88,-234.19 943.05,-234.19 943.11,-254.31"/>
<text text-anchor="middle" x="877.46" y="-242.57" font-family="Times,serif" font-size="14.00" fill="#ff4500">Clojure Test</text>
</g>
<!-- component2&#45;&gt;package4 -->
<g id="edge17" class="edge">
<title>component2&#45;&gt;package4</title>
<path fill="none" stroke="#ff1493" d="M753.67,-302.27C779.85,-291.16 813.49,-276.89 839.1,-266.02"/>
<polygon fill="#ff1493" stroke="#ff1493" points="840.35,-268.87 848.19,-261.75 837.61,-262.43 840.35,-268.87"/>
</g>
<!-- folder1 -->
<g id="node12" class="node">
<title>folder1</title>
<defs>
<radialGradient id="node12_r_11" cx="50%" cy="50%" r="75%" fx="50%" fy="50%">
<stop offset="0" style="stop-color:#00c5cd;stop-opacity:1.;"/>
<stop offset="1" style="stop-color:#63b8ff;stop-opacity:1.;"/>
</radialGradient>
</defs>
<polygon fill="url(#node12_r_11)" stroke="#00c5cd" points="273.46,-194.75 270.46,-198.75 249.46,-198.75 246.46,-194.75 219.46,-194.75 219.46,-158.75 273.46,-158.75 273.46,-194.75"/>
<text text-anchor="middle" x="246.46" y="-170.57" font-family="Times,serif" font-size="14.00" fill="#045a8d">Model</text>
</g>
<!-- package1&#45;&gt;folder1 -->
<g id="edge7" class="edge">
<title>package1&#45;&gt;folder1</title>
<path fill="none" stroke="#ffa500" d="M246.46,-233.92C246.46,-225.9 246.46,-215.51 246.46,-205.85"/>
<polygon fill="#ffa500" stroke="#ffa500" points="249.96,-206.03 246.46,-196.03 242.96,-206.03 249.96,-206.03"/>
</g>
<!-- folder2 -->
<g id="node13" class="node">
<title>folder2</title>
<defs>
<radialGradient id="node13_r_12" cx="50%" cy="50%" r="75%" fx="50%" fy="50%">
<stop offset="0" style="stop-color:#00c5cd;stop-opacity:1.;"/>
<stop offset="1" style="stop-color:#63b8ff;stop-opacity:1.;"/>
</radialGradient>
</defs>
<polygon fill="url(#node13_r_12)" stroke="#00c5cd" points="111.71,-194.75 108.71,-198.75 87.71,-198.75 84.71,-194.75 55.21,-194.75 55.21,-158.75 111.71,-158.75 111.71,-194.75"/>
<text text-anchor="middle" x="83.46" y="-170.57" font-family="Times,serif" font-size="14.00" fill="#045a8d">Service</text>
</g>
<!-- package1&#45;&gt;folder2 -->
<g id="edge8" class="edge">
<title>package1&#45;&gt;folder2</title>
<path fill="none" stroke="#ffa500" d="M212.37,-233.76C189.14,-224.15 157.45,-210.89 122.15,-195.44"/>
<polygon fill="#ffa500" stroke="#ffa500" points="123.67,-191.84 113.1,-191.02 120.85,-198.25 123.67,-191.84"/>
</g>
<!-- folder3 -->
<g id="node14" class="node">
<title>folder3</title>
<defs>
<radialGradient id="node14_r_13" cx="50%" cy="50%" r="75%" fx="50%" fy="50%">
<stop offset="0" style="stop-color:#00c5cd;stop-opacity:1.;"/>
<stop offset="1" style="stop-color:#63b8ff;stop-opacity:1.;"/>
</radialGradient>
</defs>
<polygon fill="url(#node14_r_13)" stroke="#00c5cd" points="201.21,-194.75 198.21,-198.75 177.21,-198.75 174.21,-194.75 129.71,-194.75 129.71,-158.75 201.21,-158.75 201.21,-194.75"/>
<text text-anchor="middle" x="165.46" y="-170.57" font-family="Times,serif" font-size="14.00" fill="#045a8d">Controller</text>
</g>
<!-- package1&#45;&gt;folder3 -->
<g id="edge10" class="edge">
<title>package1&#45;&gt;folder3</title>
<path fill="none" stroke="#ffa500" d="M230.46,-233.92C219.97,-224.86 205.97,-212.76 193.65,-202.11"/>
<polygon fill="#ffa500" stroke="#ffa500" points="196.31,-198.92 186.45,-195.03 191.73,-204.21 196.31,-198.92"/>
</g>
<!-- folder6 -->
<g id="node17" class="node">
<title>folder6</title>
<defs>
<radialGradient id="node17_r_14" cx="50%" cy="50%" r="75%" fx="50%" fy="50%">
<stop offset="0" style="stop-color:#00c5cd;stop-opacity:1.;"/>
<stop offset="1" style="stop-color:#63b8ff;stop-opacity:1.;"/>
</radialGradient>
</defs>
<polygon fill="url(#node17_r_14)" stroke="#00c5cd" points="353.71,-194.75 350.71,-198.75 329.71,-198.75 326.71,-194.75 291.21,-194.75 291.21,-158.75 353.71,-158.75 353.71,-194.75"/>
<text text-anchor="middle" x="322.46" y="-170.57" font-family="Times,serif" font-size="14.00" fill="#045a8d">Provider</text>
</g>
<!-- package1&#45;&gt;folder6 -->
<g id="edge11" class="edge">
<title>package1&#45;&gt;folder6</title>
<path fill="none" stroke="#ffa500" d="M261.48,-233.92C271.22,-224.94 284.2,-212.99 295.68,-202.42"/>
<polygon fill="#ffa500" stroke="#ffa500" points="297.72,-205.37 302.71,-196.03 292.98,-200.23 297.72,-205.37"/>
</g>
<!-- test1 -->
<g id="node18" class="node">
<title>test1</title>
<defs>
<radialGradient id="node18_r_15" cx="50%" cy="50%" r="75%" fx="50%" fy="50%">
<stop offset="0" style="stop-color:#008b00;stop-opacity:1.;"/>
<stop offset="1" style="stop-color:#8b0000;stop-opacity:1.;"/>
</radialGradient>
</defs>
<polygon fill="url(#node18_r_15)" stroke="#008b00" points="469.67,-176.75 445.06,-194.75 395.86,-194.75 371.26,-176.75 395.86,-158.75 445.06,-158.75 469.67,-176.75"/>
<text text-anchor="middle" x="420.46" y="-170.57" font-family="Times,serif" font-size="14.00" fill="#eeeeee">Unit Test</text>
</g>
<!-- package2&#45;&gt;test1 -->
<g id="edge23" class="edge">
<title>package2&#45;&gt;test1</title>
<path fill="none" stroke="#8b0000" stroke-dasharray="5,2" d="M475.03,-233.92C464.19,-222.76 448.89,-207.01 437.24,-195.03"/>
</g>
<!-- test2 -->
<g id="node19" class="node">
<title>test2</title>
<defs>
<radialGradient id="node19_r_16" cx="50%" cy="50%" r="75%" fx="50%" fy="50%">
<stop offset="0" style="stop-color:#008b00;stop-opacity:1.;"/>
<stop offset="1" style="stop-color:#8b0000;stop-opacity:1.;"/>
</radialGradient>
</defs>
<polygon fill="url(#node19_r_16)" stroke="#008b00" points="641.21,-176.75 602.83,-194.75 526.09,-194.75 487.72,-176.75 526.09,-158.75 602.83,-158.75 641.21,-176.75"/>
<text text-anchor="middle" x="564.46" y="-170.57" font-family="Times,serif" font-size="14.00" fill="#eeeeee">Inegeration Test</text>
</g>
<!-- package2&#45;&gt;test2 -->
<g id="edge24" class="edge">
<title>package2&#45;&gt;test2</title>
<path fill="none" stroke="#8b0000" stroke-dasharray="5,2" d="M503.48,-233.92C515.59,-222.76 532.69,-207.01 545.71,-195.03"/>
</g>
<!-- folder4 -->
<g id="node15" class="node">
<title>folder4</title>
<defs>
<radialGradient id="node15_r_17" cx="50%" cy="50%" r="75%" fx="50%" fy="50%">
<stop offset="0" style="stop-color:#00c5cd;stop-opacity:1.;"/>
<stop offset="1" style="stop-color:#63b8ff;stop-opacity:1.;"/>
</radialGradient>
</defs>
<polygon fill="url(#node15_r_17)" stroke="#00c5cd" points="728.09,-194.75 725.09,-198.75 704.09,-198.75 701.09,-194.75 658.84,-194.75 658.84,-158.75 728.09,-158.75 728.09,-194.75"/>
<text text-anchor="middle" x="693.46" y="-170.57" font-family="Times,serif" font-size="14.00" fill="#045a8d">Algorthm</text>
</g>
<!-- package3&#45;&gt;folder4 -->
<g id="edge15" class="edge">
<title>package3&#45;&gt;folder4</title>
<path fill="none" stroke="#ffa500" d="M708.71,-233.92C706.51,-225.81 703.65,-215.28 701,-205.53"/>
<polygon fill="#ffa500" stroke="#ffa500" points="704.15,-204.76 698.15,-196.03 697.39,-206.59 704.15,-204.76"/>
</g>
<!-- folder5 -->
<g id="node16" class="node">
<title>folder5</title>
<defs>
<radialGradient id="node16_r_18" cx="50%" cy="50%" r="75%" fx="50%" fy="50%">
<stop offset="0" style="stop-color:#00c5cd;stop-opacity:1.;"/>
<stop offset="1" style="stop-color:#63b8ff;stop-opacity:1.;"/>
</radialGradient>
</defs>
<polygon fill="url(#node16_r_18)" stroke="#00c5cd" points="810.46,-194.75 807.46,-198.75 786.46,-198.75 783.46,-194.75 746.46,-194.75 746.46,-158.75 810.46,-158.75 810.46,-194.75"/>
<text text-anchor="middle" x="778.46" y="-170.57" font-family="Times,serif" font-size="14.00" fill="#045a8d">Interface</text>
</g>
<!-- package3&#45;&gt;folder5 -->
<g id="edge16" class="edge">
<title>package3&#45;&gt;folder5</title>
<path fill="none" stroke="#ffa500" d="M725.5,-233.92C733.88,-225.03 745.02,-213.22 754.91,-202.73"/>
<polygon fill="#ffa500" stroke="#ffa500" points="756.86,-205.7 761.17,-196.03 751.77,-200.9 756.86,-205.7"/>
</g>
<!-- test3 -->
<g id="node20" class="node">
<title>test3</title>
<defs>
<radialGradient id="node20_r_19" cx="50%" cy="50%" r="75%" fx="50%" fy="50%">
<stop offset="0" style="stop-color:#008b00;stop-opacity:1.;"/>
<stop offset="1" style="stop-color:#8b0000;stop-opacity:1.;"/>
</radialGradient>
</defs>
<polygon fill="url(#node20_r_19)" stroke="#008b00" points="926.67,-176.75 902.06,-194.75 852.86,-194.75 828.26,-176.75 852.86,-158.75 902.06,-158.75 926.67,-176.75"/>
<text text-anchor="middle" x="877.46" y="-170.57" font-family="Times,serif" font-size="14.00" fill="#eeeeee">Unit Test</text>
</g>
<!-- package4&#45;&gt;test3 -->
<g id="edge25" class="edge">
<title>package4&#45;&gt;test3</title>
<path fill="none" stroke="#8b0000" stroke-dasharray="5,2" d="M877.46,-233.92C877.46,-222.76 877.46,-207.01 877.46,-195.03"/>
</g>
<!-- test4 -->
<g id="node21" class="node">
<title>test4</title>
<defs>
<radialGradient id="node21_r_20" cx="50%" cy="50%" r="75%" fx="50%" fy="50%">
<stop offset="0" style="stop-color:#008b00;stop-opacity:1.;"/>
<stop offset="1" style="stop-color:#8b0000;stop-opacity:1.;"/>
</radialGradient>
</defs>
<polygon fill="url(#node21_r_20)" stroke="#008b00" points="1098.21,-176.75 1059.83,-194.75 983.09,-194.75 944.72,-176.75 983.09,-158.75 1059.83,-158.75 1098.21,-176.75"/>
<text text-anchor="middle" x="1021.46" y="-170.57" font-family="Times,serif" font-size="14.00" fill="#eeeeee">Inegeration Test</text>
</g>
<!-- package4&#45;&gt;test4 -->
<g id="edge26" class="edge">
<title>package4&#45;&gt;test4</title>
<path fill="none" stroke="#8b0000" stroke-dasharray="5,2" d="M906.26,-233.75C929.07,-222.66 961.08,-207.1 985.56,-195.2"/>
</g>
<!-- folder1&#45;&gt;folder6 -->
<g id="edge19" class="edge">
<title>folder1&#45;&gt;folder6</title>
<path fill="none" stroke="#63b8ff" stroke-width="3" stroke-dasharray="1,5" d="M273.77,-176.75C274.84,-176.75 275.91,-176.75 276.98,-176.75"/>
<polygon fill="#63b8ff" stroke="#63b8ff" stroke-width="3" points="276.89,-180.25 286.89,-176.75 276.89,-173.25 276.89,-180.25"/>
</g>
<!-- folder2&#45;&gt;folder5 -->
<g id="edge22" class="edge">
<title>folder2&#45;&gt;folder5</title>
<path fill="none" stroke="#63b8ff" stroke-width="3" stroke-dasharray="1,5" d="M100.99,-194.97C108.94,-201.96 118.92,-209.11 129.46,-212.75 192.38,-234.44 665.12,-233.18 728.46,-212.75 735.29,-210.55 741.96,-207.03 748.1,-203.04"/>
<polygon fill="#63b8ff" stroke="#63b8ff" stroke-width="3" points="750.13,-205.71 756.15,-197 746.01,-200.05 750.13,-205.71"/>
</g>
<!-- function1 -->
<g id="node22" class="node">
<title>function1</title>
<defs>
<radialGradient id="node22_r_21" cx="50%" cy="50%" r="75%" fx="50%" fy="50%">
<stop offset="0" style="stop-color:#9e9ac8;stop-opacity:1.;"/>
<stop offset="1" style="stop-color:#762a83;stop-opacity:1.;"/>
</radialGradient>
</defs>
<polygon fill="url(#node22_r_21)" stroke="#9e9ac8" points="166.92,-122.75 34.15,-122.75 0,-86.75 132.77,-86.75 166.92,-122.75"/>
<text text-anchor="middle" x="83.46" y="-98.58" font-family="Times,serif" font-size="14.00" fill="#cccccc">Main Service</text>
</g>
<!-- folder2&#45;&gt;function1 -->
<g id="edge9" class="edge">
<title>folder2&#45;&gt;function1</title>
<path fill="none" stroke="#63b8ff" d="M83.46,-158.45C83.46,-150.99 83.46,-142.07 83.46,-133.72"/>
<polygon fill="#63b8ff" stroke="#63b8ff" points="86.96,-133.85 83.46,-123.85 79.96,-133.85 86.96,-133.85"/>
</g>
<!-- folder4&#45;&gt;folder5 -->
<g id="edge18" class="edge">
<title>folder4&#45;&gt;folder5</title>
<path fill="none" stroke="#63b8ff" stroke-width="3" stroke-dasharray="1,5" d="M728.32,-176.75C729.73,-176.75 731.14,-176.75 732.55,-176.75"/>
<polygon fill="#63b8ff" stroke="#63b8ff" stroke-width="3" points="732.34,-180.25 742.34,-176.75 732.34,-173.25 732.34,-180.25"/>
</g>
<!-- data1 -->
<g id="node24" class="node">
<title>data1</title>
<defs>
<radialGradient id="node24_r_22" cx="50%" cy="50%" r="75%" fx="50%" fy="50%">
<stop offset="0" style="stop-color:#67a9cf;stop-opacity:1.;"/>
<stop offset="1" style="stop-color:#016450;stop-opacity:1.;"/>
</radialGradient>
</defs>
<path fill="url(#node24_r_22)" stroke="#67a9cf" d="M390.96,-119.48C390.96,-121.28 377.29,-122.75 360.46,-122.75 343.63,-122.75 329.96,-121.28 329.96,-119.48 329.96,-119.48 329.96,-90.02 329.96,-90.02 329.96,-88.22 343.63,-86.75 360.46,-86.75 377.29,-86.75 390.96,-88.22 390.96,-90.02 390.96,-90.02 390.96,-119.48 390.96,-119.48"/>
<path fill="none" stroke="#67a9cf" d="M390.96,-119.48C390.96,-117.67 377.29,-116.2 360.46,-116.2 343.63,-116.2 329.96,-117.67 329.96,-119.48"/>
<text text-anchor="middle" x="360.46" y="-98.58" font-family="Times,serif" font-size="14.00" fill="#e5d8bd">MySQL</text>
</g>
<!-- folder6&#45;&gt;data1 -->
<g id="edge20" class="edge">
<title>folder6&#45;&gt;data1</title>
<path fill="none" stroke="#016450" stroke-width="3" stroke-dasharray="1,5" d="M331.85,-158.45C335.67,-151.41 340.2,-143.08 344.5,-135.14"/>
<polygon fill="#016450" stroke="#016450" stroke-width="3" points="347.48,-136.31 349.18,-125.85 341.33,-132.97 347.48,-136.31"/>
</g>
<!-- data2 -->
<g id="node25" class="node">
<title>data2</title>
<defs>
<radialGradient id="node25_r_23" cx="50%" cy="50%" r="75%" fx="50%" fy="50%">
<stop offset="0" style="stop-color:#67a9cf;stop-opacity:1.;"/>
<stop offset="1" style="stop-color:#016450;stop-opacity:1.;"/>
</radialGradient>
</defs>
<path fill="url(#node25_r_23)" stroke="#67a9cf" d="M311.46,-119.48C311.46,-121.28 299.36,-122.75 284.46,-122.75 269.56,-122.75 257.46,-121.28 257.46,-119.48 257.46,-119.48 257.46,-90.02 257.46,-90.02 257.46,-88.22 269.56,-86.75 284.46,-86.75 299.36,-86.75 311.46,-88.22 311.46,-90.02 311.46,-90.02 311.46,-119.48 311.46,-119.48"/>
<path fill="none" stroke="#67a9cf" d="M311.46,-119.48C311.46,-117.67 299.36,-116.2 284.46,-116.2 269.56,-116.2 257.46,-117.67 257.46,-119.48"/>
<text text-anchor="middle" x="284.46" y="-98.58" font-family="Times,serif" font-size="14.00" fill="#e5d8bd">Redis</text>
</g>
<!-- folder6&#45;&gt;data2 -->
<g id="edge21" class="edge">
<title>folder6&#45;&gt;data2</title>
<path fill="none" stroke="#016450" stroke-width="3" stroke-dasharray="1,5" d="M313.07,-158.45C309.25,-151.41 304.73,-143.08 300.42,-135.14"/>
<polygon fill="#016450" stroke="#016450" stroke-width="3" points="303.59,-132.97 295.75,-125.85 297.44,-136.31 303.59,-132.97"/>
</g>
<!-- note1 -->
<g id="node23" class="node">
<title>note1</title>
<polygon fill="#c0c0c0" stroke="#c0c0c0" points="118.09,-50.75 42.84,-50.75 42.84,0 124.09,0 124.09,-44.75 118.09,-50.75"/>
<polyline fill="none" stroke="#c0c0c0" points="118.09,-50.75 118.09,-44.75"/>
<polyline fill="none" stroke="#c0c0c0" points="124.09,-44.75 118.09,-44.75"/>
<text text-anchor="middle" x="83.46" y="-33.45" font-family="Times,serif" font-size="14.00" fill="#000000">int main() {</text>
<text text-anchor="middle" x="83.46" y="-19.2" font-family="Times,serif" font-size="14.00" fill="#000000"> &#160;return 0;</text>
<text text-anchor="middle" x="83.46" y="-4.95" font-family="Times,serif" font-size="14.00" fill="#000000">}</text>
</g>
<!-- function1&#45;&gt;note1 -->
<g id="edge27" class="edge">
<title>function1&#45;&gt;note1</title>
<path fill="none" stroke="#c0c0c0" stroke-dasharray="5,2" d="M83.46,-86.58C83.46,-76.16 83.46,-62.69 83.46,-51.13"/>
</g>
</g>
</svg>
