<?xml version="1.0" encoding="UTF-8" standalone="no"?>
<!DOCTYPE svg PUBLIC "-//W3C//DTD SVG 1.1//EN"
 "http://www.w3.org/Graphics/SVG/1.1/DTD/svg11.dtd">
<!-- Generated by graphviz version 8.0.5 (20230430.1635)
 -->
<!-- Title: G Pages: 1 -->
<svg width="679pt" height="458pt"
 viewBox="0.00 0.00 679.00 458.00" xmlns="http://www.w3.org/2000/svg" xmlns:xlink="http://www.w3.org/1999/xlink">
<g id="graph0" class="graph" transform="scale(1 1) rotate(0) translate(4 454)">
<title>G</title>
<polygon fill="white" stroke="none" points="-4,4 -4,-454 675,-454 675,4 -4,4"/>
<!-- a -->
<g id="node1" class="node">
<title>a</title>
<defs>
<radialGradient id="node1_r_0" cx="50%" cy="50%" r="75%" fx="50%" fy="50%">
<stop offset="0" style="stop-color:#cb4300;stop-opacity:1.;"/>
<stop offset="1" style="stop-color:#7f2a00;stop-opacity:1.;"/>
</radialGradient>
</defs>
<ellipse fill="url(#node1_r_0)" stroke="#cb4300" cx="142.34" cy="-172.65" rx="18" ry="18"/>
<text text-anchor="middle" x="142.34" y="-166.47" font-family="Times,serif" font-size="14.00" fill="#652100">a</text>
</g>
<!-- b -->
<g id="node2" class="node">
<title>b</title>
<defs>
<radialGradient id="node2_r_1" cx="50%" cy="50%" r="75%" fx="50%" fy="50%">
<stop offset="0" style="stop-color:#cb8600;stop-opacity:1.;"/>
<stop offset="1" style="stop-color:#7f5400;stop-opacity:1.;"/>
</radialGradient>
</defs>
<ellipse fill="url(#node2_r_1)" stroke="#cb8600" cx="125.42" cy="-257.11" rx="18" ry="18"/>
<text text-anchor="middle" x="125.42" y="-250.93" font-family="Times,serif" font-size="14.00" fill="#654300">b</text>
</g>
<!-- a&#45;&gt;b -->
<g id="edge1" class="edge">
<title>a&#45;&gt;b</title>
<polygon fill="#7f2a00" stroke="none" stroke-width="5" points="127.96,-185.88 127.6,-188.23 127.23,-190.69 126.84,-193.24 126.44,-195.87 126.02,-198.57 125.6,-201.34 125.17,-204.15 124.74,-206.99 124.3,-209.86 123.86,-212.75 123.41,-215.63 122.98,-218.5 122.54,-221.35 122.11,-224.16 121.69,-226.93 121.27,-229.64 120.87,-232.28 120.48,-234.84 120.1,-237.3 119.74,-239.66 119.74,-239.66 120.32,-237.34 120.92,-234.93 121.54,-232.41 122.19,-229.82 122.85,-227.16 123.52,-224.45 124.21,-221.68 124.9,-218.89 125.61,-216.07 126.31,-213.24 127.01,-210.41 127.71,-207.59 128.41,-204.79 129.09,-202.04 129.77,-199.32 130.43,-196.67 131.07,-194.08 131.69,-191.58 132.29,-189.17 132.87,-186.86 127.96,-185.88"/>
</g>
<!-- c -->
<g id="node3" class="node">
<title>c</title>
<defs>
<radialGradient id="node3_r_2" cx="50%" cy="50%" r="75%" fx="50%" fy="50%">
<stop offset="0" style="stop-color:#cbc900;stop-opacity:1.;"/>
<stop offset="1" style="stop-color:#7f7e00;stop-opacity:1.;"/>
</radialGradient>
</defs>
<ellipse fill="url(#node3_r_2)" stroke="#cbc900" cx="207.68" cy="-280.84" rx="18" ry="18"/>
<text text-anchor="middle" x="207.68" y="-274.67" font-family="Times,serif" font-size="14.00" fill="#656400">c</text>
</g>
<!-- a&#45;&gt;c -->
<g id="edge2" class="edge">
<title>a&#45;&gt;c</title>
<polygon fill="#7f2a00" stroke="none" stroke-width="5" points="140.77,-192.29 142.82,-195.5 145.03,-198.95 147.38,-202.62 149.86,-206.48 152.43,-210.5 155.1,-214.66 157.84,-218.93 160.62,-223.29 163.44,-227.69 166.28,-232.12 169.12,-236.56 171.94,-240.96 174.73,-245.31 177.46,-249.58 180.13,-253.73 182.7,-257.75 185.17,-261.61 187.51,-265.27 189.72,-268.71 191.76,-271.9 191.76,-271.9 189.89,-268.61 187.87,-265.05 185.72,-261.27 183.46,-257.29 181.1,-253.14 178.66,-248.85 176.16,-244.45 173.61,-239.96 171.02,-235.41 168.42,-230.83 165.82,-226.26 163.24,-221.71 160.68,-217.21 158.18,-212.81 155.74,-208.51 153.37,-204.35 151.11,-200.37 148.96,-196.58 146.93,-193.02 145.05,-189.71 140.77,-192.29"/>
</g>
<!-- d -->
<g id="node4" class="node">
<title>d</title>
<defs>
<radialGradient id="node4_r_3" cx="50%" cy="50%" r="75%" fx="50%" fy="50%">
<stop offset="0" style="stop-color:#cbff00;stop-opacity:1.;"/>
<stop offset="1" style="stop-color:#7fa800;stop-opacity:1.;"/>
</radialGradient>
</defs>
<ellipse fill="url(#node4_r_3)" stroke="#cbff00" cx="199.46" cy="-361.5" rx="18" ry="18"/>
<text text-anchor="middle" x="199.46" y="-355.32" font-family="Times,serif" font-size="14.00" fill="#658600">d</text>
</g>
<!-- a&#45;&gt;d -->
<g id="edge3" class="edge">
<title>a&#45;&gt;d</title>
<polygon fill="#7f2a00" stroke="none" stroke-width="5" points="136.01,-191.43 137.82,-197.1 139.85,-203.47 142.08,-210.45 144.48,-217.97 147.02,-225.95 149.69,-234.32 152.46,-242.99 155.3,-251.89 158.19,-260.95 161.1,-270.09 164.02,-279.22 166.91,-288.28 169.75,-297.18 172.52,-305.85 175.18,-314.21 177.73,-322.19 180.13,-329.7 182.35,-336.68 184.38,-343.04 186.19,-348.7 186.19,-348.7 184.55,-342.98 182.72,-336.57 180.7,-329.53 178.54,-321.94 176.23,-313.89 173.82,-305.45 171.32,-296.7 168.75,-287.72 166.13,-278.58 163.5,-269.36 160.86,-260.14 158.25,-251 155.68,-242.02 153.17,-233.26 150.76,-224.82 148.45,-216.77 146.28,-209.18 144.27,-202.13 142.43,-195.71 140.79,-189.98 136.01,-191.43"/>
</g>
<!-- e -->
<g id="node5" class="node">
<title>e</title>
<defs>
<radialGradient id="node5_r_4" cx="50%" cy="50%" r="75%" fx="50%" fy="50%">
<stop offset="0" style="stop-color:#88ff00;stop-opacity:1.;"/>
<stop offset="1" style="stop-color:#55a800;stop-opacity:1.;"/>
</radialGradient>
</defs>
<ellipse fill="url(#node5_r_4)" stroke="#88ff00" cx="17.78" cy="-329.17" rx="18" ry="18"/>
<text text-anchor="middle" x="17.78" y="-323" font-family="Times,serif" font-size="14.00" fill="#448600">e</text>
</g>
<!-- a&#45;&gt;e -->
<g id="edge4" class="edge">
<title>a&#45;&gt;e</title>
<polygon fill="#7f2a00" stroke="none" stroke-width="5" points="128.89,-185.54 125.18,-190.34 121.07,-195.67 116.6,-201.47 111.82,-207.67 106.77,-214.22 101.5,-221.06 96.04,-228.13 90.46,-235.38 84.78,-242.74 79.06,-250.16 73.34,-257.58 67.66,-264.94 62.07,-272.19 56.62,-279.26 51.35,-286.1 46.3,-292.64 41.52,-298.84 37.06,-304.63 32.95,-309.96 29.24,-314.76 29.24,-314.76 33.09,-310.08 37.36,-304.88 42,-299.23 46.97,-293.18 52.22,-286.79 57.7,-280.11 63.36,-273.21 69.17,-266.14 75.07,-258.96 81.01,-251.72 86.96,-244.48 92.86,-237.29 98.67,-230.22 104.33,-223.32 109.82,-216.64 115.06,-210.25 120.03,-204.2 124.68,-198.54 128.95,-193.34 132.8,-188.65 128.89,-185.54"/>
</g>
<!-- f -->
<g id="node6" class="node">
<title>f</title>
<defs>
<radialGradient id="node6_r_5" cx="50%" cy="50%" r="75%" fx="50%" fy="50%">
<stop offset="0" style="stop-color:#44ff00;stop-opacity:1.;"/>
<stop offset="1" style="stop-color:#2ba800;stop-opacity:1.;"/>
</radialGradient>
</defs>
<ellipse fill="url(#node6_r_5)" stroke="#44ff00" cx="379.4" cy="-236.31" rx="18" ry="18"/>
<text text-anchor="middle" x="379.4" y="-230.13" font-family="Times,serif" font-size="14.00" fill="#228600">f</text>
</g>
<!-- a&#45;&gt;f -->
<g id="edge5" class="edge">
<title>a&#45;&gt;f</title>
<polygon fill="#7f2a00" stroke="none" stroke-width="5" points="159.51,-179.85 166.64,-181.67 174.72,-183.74 183.63,-186.01 193.28,-188.48 203.55,-191.11 214.34,-193.87 225.55,-196.74 237.08,-199.68 248.81,-202.68 260.65,-205.71 272.49,-208.74 284.22,-211.74 295.74,-214.68 306.95,-217.55 317.74,-220.31 328,-222.93 337.63,-225.4 346.53,-227.67 354.59,-229.73 361.7,-231.55 361.7,-231.55 354.63,-229.56 346.62,-227.31 337.78,-224.82 328.21,-222.13 318.02,-219.26 307.3,-216.24 296.17,-213.11 284.72,-209.89 273.06,-206.61 261.3,-203.3 249.54,-199.99 237.88,-196.71 226.43,-193.48 215.29,-190.35 204.56,-187.33 194.36,-184.46 184.77,-181.76 175.92,-179.27 167.9,-177.01 160.81,-175.02 159.51,-179.85"/>
</g>
<!-- g -->
<g id="node7" class="node">
<title>g</title>
<defs>
<radialGradient id="node7_r_6" cx="50%" cy="50%" r="75%" fx="50%" fy="50%">
<stop offset="0" style="stop-color:#01ff00;stop-opacity:1.;"/>
<stop offset="1" style="stop-color:#01a800;stop-opacity:1.;"/>
</radialGradient>
</defs>
<ellipse fill="url(#node7_r_6)" stroke="#01ff00" cx="261.28" cy="-151.58" rx="18" ry="18"/>
<text text-anchor="middle" x="261.28" y="-145.41" font-family="Times,serif" font-size="14.00" fill="#008600">g</text>
</g>
<!-- a&#45;&gt;g -->
<g id="edge6" class="edge">
<title>a&#45;&gt;g</title>
<polygon fill="#7f2a00" stroke="none" stroke-width="5" points="160.84,-171.91 164.31,-171.19 167.99,-170.42 171.85,-169.62 175.88,-168.78 180.05,-167.92 184.34,-167.03 188.72,-166.12 193.16,-165.19 197.66,-164.26 202.18,-163.32 206.69,-162.38 211.18,-161.45 215.63,-160.52 220,-159.61 224.28,-158.72 228.44,-157.86 232.46,-157.02 236.31,-156.22 239.98,-155.46 243.43,-154.74 243.43,-154.74 239.94,-155.26 236.24,-155.8 232.34,-156.37 228.28,-156.97 224.08,-157.58 219.75,-158.22 215.34,-158.86 210.84,-159.52 206.3,-160.19 201.74,-160.86 197.18,-161.53 192.63,-162.19 188.14,-162.85 183.71,-163.5 179.38,-164.14 175.17,-164.76 171.1,-165.35 167.19,-165.93 163.47,-166.47 159.97,-166.99 160.84,-171.91"/>
</g>
<!-- b&#45;&gt;a -->
<g id="edge7" class="edge">
<title>b&#45;&gt;a</title>
<polygon fill="#7f5400" stroke="none" stroke-width="5" points="139.8,-243.87 140.16,-241.52 140.54,-239.07 140.93,-236.52 141.33,-233.89 141.74,-231.18 142.17,-228.42 142.6,-225.61 143.03,-222.76 143.47,-219.89 143.91,-217.01 144.35,-214.13 144.79,-211.25 145.23,-208.4 145.66,-205.59 146.08,-202.82 146.49,-200.11 146.9,-197.47 147.29,-194.92 147.67,-192.45 148.03,-190.09 148.03,-190.09 147.45,-192.41 146.85,-194.83 146.22,-197.34 145.58,-199.93 144.92,-202.59 144.24,-205.31 143.56,-208.07 142.86,-210.87 142.16,-213.69 141.46,-216.52 140.75,-219.35 140.05,-222.16 139.36,-224.96 138.67,-227.72 138,-230.43 137.34,-233.09 136.7,-235.67 136.07,-238.17 135.47,-240.59 134.9,-242.89 139.8,-243.87"/>
</g>
<!-- b&#45;&gt;c -->
<g id="edge8" class="edge">
<title>b&#45;&gt;c</title>
<polygon fill="#7f5400" stroke="none" stroke-width="5" points="137.71,-272.62 140,-273.17 142.38,-273.74 144.86,-274.33 147.42,-274.94 150.04,-275.56 152.71,-276.2 155.44,-276.85 158.19,-277.51 160.97,-278.17 163.75,-278.84 166.54,-279.5 169.31,-280.16 172.07,-280.82 174.79,-281.47 177.46,-282.11 180.08,-282.73 182.63,-283.34 185.11,-283.93 187.49,-284.5 189.78,-285.05 189.78,-285.05 187.55,-284.29 185.23,-283.5 182.82,-282.68 180.34,-281.84 177.79,-280.97 175.19,-280.09 172.54,-279.19 169.86,-278.27 167.16,-277.36 164.44,-276.43 161.73,-275.51 159.03,-274.59 156.35,-273.68 153.7,-272.78 151.1,-271.9 148.54,-271.03 146.06,-270.18 143.65,-269.36 141.32,-268.57 139.09,-267.82 137.71,-272.62"/>
</g>
<!-- b&#45;&gt;d -->
<g id="edge9" class="edge">
<title>b&#45;&gt;d</title>
<polygon fill="#7f5400" stroke="none" stroke-width="5" points="125.12,-276.56 127.43,-279.64 129.92,-282.97 132.58,-286.52 135.38,-290.25 138.3,-294.15 141.32,-298.19 144.43,-302.33 147.59,-306.56 150.8,-310.85 154.03,-315.16 157.26,-319.47 160.47,-323.75 163.63,-327.98 166.74,-332.13 169.77,-336.17 172.69,-340.08 175.49,-343.82 178.16,-347.37 180.65,-350.71 182.97,-353.8 182.97,-353.8 180.82,-350.59 178.49,-347.13 176.02,-343.45 173.42,-339.57 170.7,-335.51 167.88,-331.32 165,-327.02 162.05,-322.63 159.07,-318.18 156.07,-313.71 153.07,-309.24 150.09,-304.79 147.14,-300.41 144.26,-296.11 141.45,-291.92 138.73,-287.87 136.13,-284 133.66,-280.32 131.35,-276.87 129.2,-273.67 125.12,-276.56"/>
</g>
<!-- b&#45;&gt;e -->
<g id="edge10" class="edge">
<title>b&#45;&gt;e</title>
<polygon fill="#7f5400" stroke="none" stroke-width="5" points="109.07,-265.05 105.94,-267.27 102.6,-269.63 99.07,-272.14 95.38,-274.75 91.54,-277.47 87.59,-280.28 83.54,-283.15 79.42,-286.07 75.25,-289.03 71.06,-292 66.86,-294.97 62.69,-297.93 58.57,-300.85 54.51,-303.73 50.55,-306.54 46.71,-309.26 43,-311.89 39.46,-314.4 36.11,-316.78 32.96,-319.01 32.96,-319.01 36.22,-316.95 39.7,-314.76 43.37,-312.44 47.21,-310.01 51.19,-307.5 55.3,-304.9 59.5,-302.25 63.78,-299.55 68.1,-296.82 72.45,-294.08 76.8,-291.33 81.12,-288.61 85.39,-285.91 89.58,-283.26 93.68,-280.67 97.66,-278.16 101.49,-275.75 105.15,-273.44 108.61,-271.25 111.85,-269.21 109.07,-265.05"/>
</g>
<!-- b&#45;&gt;f -->
<g id="edge11" class="edge">
<title>b&#45;&gt;f</title>
<polygon fill="#7f5400" stroke="none" stroke-width="5" points="143.99,-257.67 147.74,-257.23 151.68,-256.77 155.77,-256.3 159.98,-255.81 164.24,-255.31 168.54,-254.81 172.82,-254.31 177.04,-253.82 181.16,-253.34 185.14,-252.87 188.94,-252.43 192.51,-252.01 195.82,-251.63 198.83,-251.28 201.48,-250.97 203.75,-250.7 205.58,-250.49 206.95,-250.33 207.79,-250.23 208.06,-250.2 208.82,-250.14 211.12,-249.95 214.79,-249.64 219.7,-249.24 225.72,-248.74 232.72,-248.17 240.58,-247.52 249.16,-246.81 258.33,-246.06 267.96,-245.27 277.92,-244.45 288.09,-243.61 298.32,-242.77 308.5,-241.93 318.49,-241.11 328.16,-240.31 337.38,-239.55 346.02,-238.84 353.96,-238.19 361.05,-237.6 361.05,-237.6 353.94,-238.03 346,-238.5 337.34,-239.01 328.11,-239.56 318.42,-240.13 308.42,-240.72 298.22,-241.33 287.97,-241.94 277.79,-242.54 267.81,-243.13 258.16,-243.7 248.98,-244.25 240.38,-244.76 232.52,-245.22 225.5,-245.64 219.47,-246 214.55,-246.29 210.87,-246.51 208.57,-246.64 207.75,-246.69 207.43,-246.72 206.58,-246.8 205.21,-246.93 203.37,-247.1 201.1,-247.31 198.44,-247.56 195.43,-247.84 192.11,-248.15 188.52,-248.49 184.72,-248.84 180.72,-249.22 176.59,-249.6 172.36,-250 168.07,-250.4 163.77,-250.8 159.49,-251.2 155.28,-251.59 151.18,-251.98 147.23,-252.35 143.47,-252.7 143.99,-257.67"/>
</g>
<!-- b&#45;&gt;g -->
<g id="edge12" class="edge">
<title>b&#45;&gt;g</title>
<polygon fill="#7f5400" stroke="none" stroke-width="5" points="141.5,-247.79 145.57,-244.51 150.02,-240.92 154.8,-237.05 159.88,-232.95 165.22,-228.65 170.76,-224.18 176.47,-219.57 182.31,-214.86 188.23,-210.08 194.2,-205.27 200.16,-200.46 206.08,-195.68 211.92,-190.97 217.63,-186.37 223.17,-181.9 228.49,-177.6 233.57,-173.51 238.34,-169.65 242.78,-166.07 246.84,-162.79 246.84,-162.79 242.67,-165.92 238.1,-169.33 233.18,-173.01 227.96,-176.91 222.48,-181.01 216.78,-185.27 210.9,-189.66 204.9,-194.15 198.8,-198.71 192.67,-203.3 186.53,-207.88 180.43,-212.44 174.42,-216.93 168.55,-221.33 162.84,-225.59 157.35,-229.7 152.12,-233.6 147.2,-237.29 142.62,-240.71 138.43,-243.84 141.5,-247.79"/>
</g>
<!-- c&#45;&gt;a -->
<g id="edge13" class="edge">
<title>c&#45;&gt;a</title>
<polygon fill="#7f7e00" stroke="none" stroke-width="5" points="209.25,-261.2 207.19,-257.99 204.98,-254.54 202.63,-250.87 200.16,-247.01 197.58,-242.99 194.92,-238.83 192.18,-234.56 189.4,-230.21 186.57,-225.8 183.73,-221.37 180.9,-216.93 178.07,-212.53 175.29,-208.18 172.56,-203.91 169.89,-199.76 167.32,-195.74 164.85,-191.89 162.5,-188.22 160.3,-184.78 158.25,-181.59 158.25,-181.59 160.13,-184.89 162.15,-188.44 164.3,-192.22 166.56,-196.2 168.92,-200.35 171.35,-204.64 173.86,-209.04 176.41,-213.53 178.99,-218.08 181.6,-222.66 184.2,-227.24 186.78,-231.78 189.34,-236.28 191.84,-240.69 194.28,-244.98 196.64,-249.14 198.91,-253.12 201.06,-256.91 203.09,-260.47 204.97,-263.78 209.25,-261.2"/>
</g>
<!-- c&#45;&gt;b -->
<g id="edge14" class="edge">
<title>c&#45;&gt;b</title>
<polygon fill="#7f7e00" stroke="none" stroke-width="5" points="195.39,-265.33 193.11,-264.78 190.72,-264.21 188.24,-263.62 185.68,-263.01 183.06,-262.39 180.39,-261.75 177.67,-261.1 174.91,-260.44 172.14,-259.78 169.35,-259.12 166.56,-258.45 163.79,-257.79 161.03,-257.13 158.31,-256.48 155.64,-255.84 153.02,-255.22 150.47,-254.61 147.99,-254.02 145.61,-253.45 143.32,-252.9 143.32,-252.9 145.55,-253.66 147.87,-254.45 150.28,-255.27 152.76,-256.11 155.31,-256.98 157.92,-257.87 160.56,-258.77 163.24,-259.68 165.94,-260.59 168.66,-261.52 171.37,-262.44 174.07,-263.36 176.75,-264.27 179.4,-265.17 182,-266.05 184.56,-266.92 187.04,-267.77 189.45,-268.59 191.78,-269.38 194.01,-270.13 195.39,-265.33"/>
</g>
<!-- c&#45;&gt;d -->
<g id="edge15" class="edge">
<title>c&#45;&gt;d</title>
<polygon fill="#7f7e00" stroke="none" stroke-width="5" points="194.61,-295.61 194.5,-297.79 194.39,-300.06 194.27,-302.4 194.15,-304.81 194.02,-307.28 193.89,-309.8 193.76,-312.35 193.63,-314.94 193.5,-317.54 193.37,-320.15 193.24,-322.77 193.11,-325.37 192.97,-327.95 192.85,-330.51 192.72,-333.03 192.59,-335.49 192.47,-337.9 192.35,-340.24 192.24,-342.51 192.13,-344.69 192.13,-344.69 192.46,-342.53 192.8,-340.29 193.16,-337.97 193.52,-335.59 193.9,-333.15 194.28,-330.66 194.67,-328.13 195.06,-325.57 195.46,-322.99 195.86,-320.41 196.25,-317.82 196.65,-315.24 197.04,-312.69 197.43,-310.16 197.81,-307.67 198.19,-305.22 198.56,-302.84 198.91,-300.52 199.26,-298.28 199.59,-296.12 194.61,-295.61"/>
</g>
<!-- c&#45;&gt;e -->
<g id="edge16" class="edge">
<title>c&#45;&gt;e</title>
<polygon fill="#7f7e00" stroke="none" stroke-width="5" points="189.19,-282.97 183.44,-284.53 177.08,-286.25 170.17,-288.13 162.78,-290.13 154.99,-292.25 146.85,-294.46 138.44,-296.74 129.83,-299.07 121.08,-301.45 112.27,-303.84 103.45,-306.23 94.71,-308.6 86.1,-310.94 77.7,-313.21 69.58,-315.42 61.79,-317.53 54.42,-319.53 47.53,-321.4 41.18,-323.12 35.46,-324.67 35.46,-324.67 41.23,-323.3 47.63,-321.78 54.57,-320.13 62,-318.36 69.85,-316.49 78.04,-314.55 86.51,-312.53 95.18,-310.47 104,-308.37 112.88,-306.26 121.77,-304.14 130.59,-302.05 139.27,-299.98 147.74,-297.97 155.95,-296.02 163.8,-294.15 171.25,-292.38 178.22,-290.72 184.63,-289.19 190.43,-287.81 189.19,-282.97"/>
</g>
<!-- c&#45;&gt;f -->
<g id="edge17" class="edge">
<title>c&#45;&gt;f</title>
<polygon fill="#7f7e00" stroke="none" stroke-width="5" points="226.03,-278.67 231.22,-277.22 236.9,-275.64 243.03,-273.93 249.55,-272.12 256.4,-270.21 263.53,-268.23 270.88,-266.18 278.4,-264.08 286.04,-261.96 293.73,-259.82 301.42,-257.68 309.05,-255.55 316.58,-253.46 323.94,-251.41 331.08,-249.42 337.94,-247.51 344.47,-245.69 350.61,-243.98 356.31,-242.39 361.51,-240.95 361.51,-240.95 356.26,-242.21 350.51,-243.59 344.31,-245.08 337.72,-246.67 330.8,-248.33 323.59,-250.06 316.16,-251.85 308.57,-253.68 300.86,-255.53 293.1,-257.4 285.34,-259.26 277.63,-261.12 270.04,-262.94 262.62,-264.73 255.42,-266.46 248.51,-268.12 241.93,-269.7 235.75,-271.19 230.01,-272.57 224.78,-273.83 226.03,-278.67"/>
</g>
<!-- c&#45;&gt;g -->
<g id="edge18" class="edge">
<title>c&#45;&gt;g</title>
<polygon fill="#7f7e00" stroke="none" stroke-width="5" points="216.99,-264.9 218.5,-261 220.13,-256.8 221.85,-252.35 223.66,-247.67 225.54,-242.8 227.48,-237.77 229.48,-232.62 231.51,-227.36 233.56,-222.04 235.63,-216.7 237.7,-211.35 239.75,-206.03 241.78,-200.78 243.78,-195.62 245.72,-190.59 247.61,-185.72 249.41,-181.04 251.13,-176.59 252.76,-172.39 254.27,-168.49 254.27,-168.49 252.57,-172.32 250.75,-176.43 248.81,-180.79 246.78,-185.38 244.66,-190.15 242.48,-195.08 240.24,-200.13 237.96,-205.28 235.65,-210.49 233.32,-215.74 231,-220.98 228.69,-226.19 226.4,-231.34 224.16,-236.4 221.98,-241.32 219.86,-246.1 217.83,-250.68 215.9,-255.04 214.07,-259.16 212.37,-262.99 216.99,-264.9"/>
</g>
<!-- d&#45;&gt;a -->
<g id="edge19" class="edge">
<title>d&#45;&gt;a</title>
<path fill="none" stroke="#7fa800" d="M203.4,-343.44C193.61,-311.06 170.85,-235.8 158.78,-195.92"/>
<polygon fill="#7fa800" stroke="#7fa800" points="161.86,-195 155.62,-186.44 155.16,-197.03 161.86,-195"/>
</g>
<!-- d&#45;&gt;b -->
<g id="edge20" class="edge">
<title>d&#45;&gt;b</title>
<path fill="none" stroke="#7fa800" d="M197.72,-343.49C185.4,-326.12 163.2,-294.82 148.23,-273.7"/>
<polygon fill="#7fa800" stroke="#7fa800" points="150.56,-271.94 141.92,-265.81 144.85,-275.99 150.56,-271.94"/>
</g>
<!-- d&#45;&gt;c -->
<g id="edge21" class="edge">
<title>d&#45;&gt;c</title>
<path fill="none" stroke="#7fa800" d="M210.04,-346.48C211.14,-335.65 212.63,-321.07 213.91,-308.49"/>
<polygon fill="#7fa800" stroke="#7fa800" points="217.48,-308.96 215.01,-298.66 210.52,-308.25 217.48,-308.96"/>
</g>
<!-- d&#45;&gt;e -->
<g id="edge22" class="edge">
<title>d&#45;&gt;e</title>
<path fill="none" stroke="#7fa800" d="M181.38,-358.28C149.82,-352.67 84.44,-341.04 46.59,-334.3"/>
<polygon fill="#7fa800" stroke="#7fa800" points="47.25,-330.68 36.79,-332.38 46.02,-337.58 47.25,-330.68"/>
</g>
<!-- d&#45;&gt;f -->
<g id="edge23" class="edge">
<title>d&#45;&gt;f</title>
<path fill="none" stroke="#7fa800" d="M214.49,-351.04C245.72,-329.32 317.82,-279.15 355.5,-252.94"/>
<polygon fill="#7fa800" stroke="#7fa800" points="357.08,-255.41 363.29,-246.82 353.08,-249.66 357.08,-255.41"/>
</g>
<!-- d&#45;&gt;g -->
<g id="edge24" class="edge">
<title>d&#45;&gt;g</title>
<path fill="none" stroke="#7fa800" d="M208.09,-345.46C217.25,-328.42 230.43,-303.91 230.43,-303.91 230.43,-303.91 240.08,-281.07 240.08,-281.07 240.08,-281.07 250.37,-218.19 256.61,-180.07"/>
<polygon fill="#7fa800" stroke="#7fa800" points="260.17,-181.02 258.33,-170.59 253.26,-179.89 260.17,-181.02"/>
</g>
<!-- h -->
<g id="node8" class="node">
<title>h</title>
<ellipse fill="#00a800" stroke="#00a800" cx="484.7" cy="-200.95" rx="27" ry="18"/>
<text text-anchor="middle" x="484.7" y="-194.78" font-family="Times,serif" font-size="14.00" fill="#ffffff">h</text>
</g>
<!-- f&#45;&gt;h -->
<g id="edge38" class="edge">
<title>f&#45;&gt;h</title>
<path fill="none" stroke="#000000" stroke-dasharray="5,2" d="M396.79,-230.47C411.18,-225.64 432.06,-218.62 449.87,-212.65"/>
<polygon fill="#000000" stroke="#000000" points="450.83,-215.68 459.2,-209.18 448.6,-209.04 450.83,-215.68"/>
</g>
<!-- i -->
<g id="node9" class="node">
<title>i</title>
<ellipse fill="#00a82a" stroke="#00a82a" cx="455.43" cy="-18.04" rx="27" ry="18"/>
<text text-anchor="middle" x="455.43" y="-11.87" font-family="Times,serif" font-size="14.00" fill="#ffffff">i</text>
</g>
<!-- f&#45;&gt;i -->
<g id="edge39" class="edge">
<title>f&#45;&gt;i</title>
<path fill="none" stroke="#000000" stroke-dasharray="5,2" d="M385.37,-219.18C398.43,-181.69 429.66,-92.03 445.64,-46.15"/>
<polygon fill="#000000" stroke="#000000" points="449.19,-47.6 449.18,-37 442.58,-45.3 449.19,-47.6"/>
</g>
<!-- j -->
<g id="node10" class="node">
<title>j</title>
<ellipse fill="#00a854" stroke="#00a854" cx="568.23" cy="-37.79" rx="27" ry="18"/>
<text text-anchor="middle" x="568.23" y="-31.62" font-family="Times,serif" font-size="14.00" fill="#ffffff">j</text>
</g>
<!-- f&#45;&gt;j -->
<g id="edge40" class="edge">
<title>f&#45;&gt;j</title>
<path fill="none" stroke="#000000" stroke-dasharray="5,2" d="M392.09,-222.97C423.72,-189.72 506.4,-102.8 546.2,-60.96"/>
<polygon fill="#000000" stroke="#000000" points="548.2,-63.88 552.56,-54.22 543.13,-59.05 548.2,-63.88"/>
</g>
<!-- k -->
<g id="node11" class="node">
<title>k</title>
<ellipse fill="none" stroke="#00a87e" cx="644.34" cy="-148.61" rx="27" ry="18"/>
<text text-anchor="middle" x="644.34" y="-142.44" font-family="Times,serif" font-size="14.00" fill="#00a87e">k</text>
</g>
<!-- f&#45;&gt;k -->
<g id="edge41" class="edge">
<title>f&#45;&gt;k</title>
<path fill="none" stroke="#000000" stroke-dasharray="5,2" d="M397.67,-235.79C427.71,-234.94 484.27,-233.35 484.27,-233.35 484.27,-233.35 518.76,-224.06 518.76,-224.06 518.76,-224.06 577.36,-188.86 614.5,-166.54"/>
<polygon fill="#000000" stroke="#000000" points="616.12,-169.05 622.89,-160.9 612.51,-163.05 616.12,-169.05"/>
</g>
<!-- l -->
<g id="node12" class="node">
<title>l</title>
<ellipse fill="none" stroke="#00a8a8" cx="490.38" cy="-431.82" rx="27" ry="18"/>
<text text-anchor="middle" x="490.38" y="-425.65" font-family="Times,serif" font-size="14.00" fill="#00a8a8">l</text>
</g>
<!-- f&#45;&gt;l -->
<g id="edge42" class="edge">
<title>f&#45;&gt;l</title>
<path fill="none" stroke="#000000" stroke-dasharray="5,2" d="M388.49,-252.31C407.57,-285.92 451.99,-364.18 475.37,-405.38"/>
<polygon fill="#000000" stroke="#000000" points="472.72,-406.8 480.7,-413.77 478.81,-403.34 472.72,-406.8"/>
</g>
<!-- m -->
<g id="node13" class="node">
<title>m</title>
<defs>
<radialGradient id="node13_r_7" cx="50%" cy="50%" r="75%" fx="50%" fy="50%">
<stop offset="0" style="stop-color:#00bdfc;stop-opacity:1.;"/>
<stop offset="1" style="stop-color:#007ea8;stop-opacity:1.;"/>
</radialGradient>
</defs>
<polygon fill="url(#node13_r_7)" stroke="#00bdfc" points="604.87,-215.96 606.63,-216.05 608.37,-216.2 610.09,-216.4 611.78,-216.64 613.42,-216.93 615.02,-217.27 616.57,-217.65 618.06,-218.08 619.49,-218.55 620.85,-219.07 622.14,-219.62 623.35,-220.21 624.48,-220.85 625.52,-221.51 626.47,-222.21 627.34,-222.95 628.12,-223.71 628.8,-224.5 629.39,-225.31 629.88,-226.15 630.28,-227.02 630.59,-227.9 630.8,-228.79 630.92,-229.7 630.95,-230.63 630.9,-231.56 630.76,-232.49 630.54,-233.44 630.24,-234.38 629.86,-235.32 629.42,-236.26 628.9,-237.19 628.32,-238.11 627.68,-239.02 626.98,-239.92 626.23,-240.8 625.43,-241.66 624.58,-242.5 623.69,-243.31 622.77,-244.11 621.81,-244.87 620.82,-245.6 619.8,-246.3 618.75,-246.97 617.69,-247.6 616.6,-248.19 615.5,-248.75 614.39,-249.26 613.26,-249.73 612.12,-250.16 610.97,-250.54 609.82,-250.88 608.66,-251.17 607.49,-251.42 606.32,-251.61 605.15,-251.76 603.97,-251.86 602.8,-251.91 601.62,-251.91 600.45,-251.86 599.27,-251.76 598.1,-251.61 596.93,-251.42 595.76,-251.17 594.6,-250.88 593.45,-250.54 592.3,-250.16 591.16,-249.73 590.03,-249.26 588.92,-248.75 587.82,-248.19 586.73,-247.6 585.67,-246.97 584.62,-246.3 583.6,-245.6 582.61,-244.87 581.65,-244.11 580.73,-243.31 579.84,-242.5 578.99,-241.66 578.19,-240.8 577.44,-239.92 576.74,-239.02 576.1,-238.11 575.52,-237.19 575,-236.26 574.56,-235.32 574.18,-234.38 573.88,-233.44 573.66,-232.49 573.52,-231.56 573.47,-230.63 573.5,-229.7 573.62,-228.79 573.84,-227.9 574.14,-227.02 574.54,-226.15 575.04,-225.31 575.62,-224.5 576.3,-223.71 577.08,-222.95 577.95,-222.21 578.9,-221.51 579.95,-220.85 581.07,-220.21 582.28,-219.62 583.57,-219.07 584.93,-218.55 586.36,-218.08 587.85,-217.65 589.4,-217.27 591,-216.93 592.64,-216.64 594.33,-216.4 596.05,-216.2 597.79,-216.05 599.55,-215.96 601.32,-215.91 603.1,-215.91 604.87,-215.96"/>
<text text-anchor="middle" x="602.21" y="-227.73" font-family="Times,serif" font-size="14.00" fill="#00ffff">m</text>
</g>
<!-- f&#45;&gt;m -->
<g id="edge43" class="edge">
<title>f&#45;&gt;m</title>
<path fill="none" stroke="#000000" stroke-dasharray="5,2" d="M397.64,-236.11C433.6,-235.72 514.4,-234.85 563,-234.33"/>
<polygon fill="#000000" stroke="#000000" points="562.77,-237.82 572.74,-234.21 562.7,-230.82 562.77,-237.82"/>
</g>
<!-- n -->
<g id="node14" class="node">
<title>n</title>
<defs>
<radialGradient id="node14_r_8" cx="50%" cy="50%" r="75%" fx="50%" fy="50%">
<stop offset="0" style="stop-color:#007efc;stop-opacity:1.;"/>
<stop offset="1" style="stop-color:#0054a8;stop-opacity:1.;"/>
</radialGradient>
</defs>
<polygon fill="url(#node14_r_8)" stroke="#007efc" points="616.59,-353.76 618.35,-353.86 620.09,-354.01 621.81,-354.21 623.5,-354.45 625.14,-354.74 626.74,-355.08 628.29,-355.46 629.78,-355.89 631.21,-356.36 632.57,-356.88 633.86,-357.43 635.07,-358.02 636.2,-358.65 637.24,-359.32 638.2,-360.02 639.06,-360.75 639.84,-361.52 640.52,-362.31 641.11,-363.12 641.6,-363.96 642,-364.82 642.31,-365.7 642.52,-366.6 642.64,-367.51 642.67,-368.43 642.62,-369.37 642.48,-370.3 642.26,-371.24 641.96,-372.19 641.58,-373.13 641.14,-374.07 640.62,-375 640.04,-375.92 639.4,-376.83 638.7,-377.73 637.95,-378.61 637.15,-379.47 636.3,-380.31 635.41,-381.12 634.49,-381.91 633.53,-382.68 632.54,-383.41 631.52,-384.11 630.47,-384.78 629.41,-385.41 628.32,-386 627.22,-386.55 626.11,-387.07 624.98,-387.54 623.84,-387.97 622.69,-388.35 621.54,-388.69 620.38,-388.98 619.21,-389.22 618.04,-389.42 616.87,-389.57 615.69,-389.67 614.52,-389.72 613.34,-389.72 612.17,-389.67 610.99,-389.57 609.82,-389.42 608.65,-389.22 607.48,-388.98 606.32,-388.69 605.17,-388.35 604.02,-387.97 602.88,-387.54 601.75,-387.07 600.64,-386.55 599.54,-386 598.45,-385.41 597.39,-384.78 596.34,-384.11 595.33,-383.41 594.33,-382.68 593.37,-381.91 592.45,-381.12 591.56,-380.31 590.71,-379.47 589.91,-378.61 589.16,-377.73 588.46,-376.83 587.82,-375.92 587.24,-375 586.72,-374.07 586.28,-373.13 585.9,-372.19 585.6,-371.24 585.38,-370.3 585.24,-369.37 585.19,-368.43 585.22,-367.51 585.34,-366.6 585.56,-365.7 585.86,-364.82 586.26,-363.96 586.76,-363.12 587.34,-362.31 588.03,-361.52 588.8,-360.75 589.67,-360.02 590.62,-359.32 591.67,-358.65 592.79,-358.02 594,-357.43 595.29,-356.88 596.65,-356.36 598.08,-355.89 599.57,-355.46 601.12,-355.08 602.72,-354.74 604.36,-354.45 606.05,-354.21 607.77,-354.01 609.51,-353.86 611.27,-353.76 613.04,-353.72 614.82,-353.72 616.59,-353.76"/>
<text text-anchor="middle" x="613.93" y="-365.54" font-family="Times,serif" font-size="14.00" fill="#00ffff">n</text>
</g>
<!-- f&#45;&gt;n -->
<g id="edge44" class="edge">
<title>f&#45;&gt;n</title>
<path fill="none" stroke="#000000" stroke-dasharray="5,2" d="M395.16,-245.4C433.27,-267.4 531.06,-323.87 582,-353.28"/>
<polygon fill="#000000" stroke="#000000" points="579.82,-356.64 590.23,-358.61 583.32,-350.58 579.82,-356.64"/>
</g>
<!-- g&#45;&gt;h -->
<g id="edge37" class="edge">
<title>g&#45;&gt;h</title>
<path fill="none" stroke="#000000" stroke-width="2" stroke-dasharray="1,5" d="M279.18,-155.54C318.53,-164.23 412.68,-185.04 458.61,-195.19"/>
</g>
<!-- h&#45;&gt;i -->
<g id="edge25" class="edge">
<title>h&#45;&gt;i</title>
<path fill="none" stroke="#00a800" d="M481.79,-182.74C476.68,-150.83 466.08,-84.59 460,-46.56"/>
<polygon fill="#00a800" stroke="#00a800" points="463.37,-46.5 458.34,-37.18 456.46,-47.6 463.37,-46.5"/>
</g>
<!-- h&#45;&gt;j -->
<g id="edge26" class="edge">
<title>h&#45;&gt;j</title>
<path fill="none" stroke="#00a800" d="M493.64,-183.49C508.21,-155.03 537.18,-98.45 554.41,-64.78"/>
<polygon fill="#00a800" stroke="#00a800" points="557.92,-66.63 559.36,-56.13 551.69,-63.44 557.92,-66.63"/>
</g>
<!-- h&#45;&gt;k -->
<g id="edge27" class="edge">
<title>h&#45;&gt;k</title>
<path fill="none" stroke="#00a800" d="M509.29,-192.89C536.13,-184.09 579.3,-169.94 609.59,-160"/>
<polygon fill="#00a800" stroke="#00a800" points="610.31,-163.12 618.72,-156.68 608.13,-156.47 610.31,-163.12"/>
</g>
<!-- h&#45;&gt;l -->
<g id="edge28" class="edge">
<title>h&#45;&gt;l</title>
<path fill="none" stroke="#00a800" d="M485.15,-219.07C486.13,-258.84 488.47,-354.1 489.66,-402.51"/>
<polygon fill="#00a800" stroke="#00a800" points="486.19,-402.56 489.93,-412.47 493.18,-402.39 486.19,-402.56"/>
</g>
<!-- h&#45;&gt;m -->
<g id="edge29" class="edge">
<title>h&#45;&gt;m</title>
<path fill="none" stroke="#00a800" d="M502.2,-215.21C519.08,-219.94 543.68,-226.84 563.96,-232.53"/>
<polygon fill="#00a800" stroke="#00a800" points="562.84,-236.13 573.41,-235.46 564.73,-229.39 562.84,-236.13"/>
</g>
<!-- h&#45;&gt;n -->
<g id="edge30" class="edge">
<title>h&#45;&gt;n</title>
<path fill="none" stroke="#00a800" d="M497.09,-217.32C519.69,-247.18 567.74,-310.67 594.65,-346.23"/>
<polygon fill="#00a800" stroke="#00a800" points="592.18,-347.77 601,-353.63 597.76,-343.55 592.18,-347.77"/>
</g>
<!-- m&#45;&gt;h -->
<g id="edge32" class="edge">
<title>m&#45;&gt;h</title>
<path fill="none" stroke="#007ea8" d="M582.54,-219.04C565.6,-214.29 541.89,-207.64 522.34,-202.16"/>
<polygon fill="#007ea8" stroke="#007ea8" points="523.56,-198.59 512.98,-199.25 521.67,-205.33 523.56,-198.59"/>
</g>
<!-- m&#45;&gt;i -->
<g id="edge31" class="edge">
<title>m&#45;&gt;i</title>
<path fill="none" stroke="#007ea8" d="M590.45,-216.61C564.72,-178.76 503.32,-88.47 472.99,-43.87"/>
<polygon fill="#007ea8" stroke="#007ea8" points="475.36,-42.13 466.85,-35.83 469.58,-46.07 475.36,-42.13"/>
</g>
<!-- m&#45;&gt;j -->
<g id="edge33" class="edge">
<title>m&#45;&gt;j</title>
<path fill="none" stroke="#007ea8" d="M599.07,-215.81C593.17,-181.75 580.37,-107.85 573.26,-66.79"/>
<polygon fill="#007ea8" stroke="#007ea8" points="576.57,-66.39 571.41,-57.13 569.67,-67.58 576.57,-66.39"/>
</g>
<!-- m&#45;&gt;k -->
<g id="edge34" class="edge">
<title>m&#45;&gt;k</title>
<path fill="none" stroke="#007ea8" d="M610.94,-216.23C616.74,-204.49 624.47,-188.85 631.03,-175.56"/>
<polygon fill="#007ea8" stroke="#007ea8" points="634.48,-177.49 635.77,-166.97 628.2,-174.39 634.48,-177.49"/>
</g>
<!-- m&#45;&gt;l -->
<g id="edge35" class="edge">
<title>m&#45;&gt;l</title>
<path fill="none" stroke="#007ea8" d="M592.68,-250.78C573.21,-285.24 528.75,-363.92 505.38,-405.28"/>
<polygon fill="#007ea8" stroke="#007ea8" points="501.93,-403.28 500.05,-413.71 508.02,-406.72 501.93,-403.28"/>
</g>
<!-- m&#45;&gt;n -->
<g id="edge36" class="edge">
<title>m&#45;&gt;n</title>
<path fill="none" stroke="#007ea8" d="M603.77,-252.21C605.73,-275.27 609.12,-315.19 611.45,-342.5"/>
<polygon fill="#007ea8" stroke="#007ea8" points="608.03,-342.67 612.37,-352.34 615.01,-342.08 608.03,-342.67"/>
</g>
</g>
</svg>
