<?xml version="1.0" encoding="UTF-8" standalone="no"?>
<!DOCTYPE svg PUBLIC "-//W3C//DTD SVG 1.1//EN"
 "http://www.w3.org/Graphics/SVG/1.1/DTD/svg11.dtd">
<!-- Generated by graphviz version 8.0.5 (0)
 -->
<!-- Title: G Pages: 1 -->
<svg width="694pt" height="458pt"
 viewBox="0.00 0.00 694.00 458.00" xmlns="http://www.w3.org/2000/svg" xmlns:xlink="http://www.w3.org/1999/xlink">
<g id="graph0" class="graph" transform="scale(1 1) rotate(0) translate(4 454)">
<title>G</title>
<polygon fill="white" stroke="none" points="-4,4 -4,-454 690,-454 690,4 -4,4"/>
<!-- a -->
<g id="node1" class="node">
<title>a</title>
<defs>
<radialGradient id="node1_r_0" cx="50%" cy="50%" r="75%" fx="50%" fy="50%">
<stop offset="0" style="stop-color:#cb4300;stop-opacity:1.;"/>
<stop offset="1" style="stop-color:#7f2a00;stop-opacity:1.;"/>
</radialGradient>
</defs>
<ellipse fill="url(#node1_r_0)" stroke="#cb4300" cx="158.82" cy="-160.82" rx="20.51" ry="20.51"/>
<text text-anchor="middle" x="158.82" y="-158.02" font-family="Times,serif" font-size="14.00" fill="#652100">a</text>
</g>
<!-- b -->
<g id="node2" class="node">
<title>b</title>
<defs>
<radialGradient id="node2_r_1" cx="50%" cy="50%" r="75%" fx="50%" fy="50%">
<stop offset="0" style="stop-color:#cb8600;stop-opacity:1.;"/>
<stop offset="1" style="stop-color:#7f5400;stop-opacity:1.;"/>
</radialGradient>
</defs>
<ellipse fill="url(#node2_r_1)" stroke="#cb8600" cx="174.17" cy="-244.08" rx="20.51" ry="20.51"/>
<text text-anchor="middle" x="174.17" y="-241.28" font-family="Times,serif" font-size="14.00" fill="#654300">b</text>
</g>
<!-- a&#45;&gt;b -->
<g id="edge1" class="edge">
<title>a&#45;&gt;b</title>
<polygon fill="#7f2a00" stroke="none" stroke-width="5" points="150.92,-181.39 151.42,-183.47 151.93,-185.62 152.46,-187.83 153.01,-190.09 153.56,-192.4 154.12,-194.74 154.69,-197.12 155.26,-199.51 155.84,-201.92 156.42,-204.34 157,-206.76 157.58,-209.17 158.15,-211.56 158.72,-213.93 159.28,-216.28 159.84,-218.58 160.38,-220.84 160.91,-223.05 161.42,-225.2 161.92,-227.28 161.92,-227.28 161.65,-225.16 161.36,-222.97 161.07,-220.71 160.77,-218.41 160.46,-216.06 160.15,-213.67 159.84,-211.25 159.52,-208.81 159.2,-206.35 158.88,-203.89 158.56,-201.42 158.24,-198.96 157.92,-196.52 157.61,-194.1 157.3,-191.71 156.99,-189.36 156.69,-187.05 156.4,-184.8 156.11,-182.61 155.84,-180.48 150.92,-181.39"/>
</g>
<!-- c -->
<g id="node3" class="node">
<title>c</title>
<defs>
<radialGradient id="node3_r_2" cx="50%" cy="50%" r="75%" fx="50%" fy="50%">
<stop offset="0" style="stop-color:#cbc900;stop-opacity:1.;"/>
<stop offset="1" style="stop-color:#7f7e00;stop-opacity:1.;"/>
</radialGradient>
</defs>
<ellipse fill="url(#node3_r_2)" stroke="#cbc900" cx="245.27" cy="-369.42" rx="20.51" ry="20.51"/>
<text text-anchor="middle" x="245.27" y="-366.62" font-family="Times,serif" font-size="14.00" fill="#656400">c</text>
</g>
<!-- a&#45;&gt;c -->
<g id="edge2" class="edge">
<title>a&#45;&gt;c</title>
<polygon fill="#7f2a00" stroke="none" stroke-width="5" points="171.57,-177.22 172.47,-178.1 173.36,-178.98 174.23,-179.84 175.09,-180.68 175.93,-181.5 176.74,-182.3 177.52,-183.06 178.27,-183.8 178.98,-184.49 179.64,-185.15 180.27,-185.76 180.84,-186.32 181.36,-186.83 181.82,-187.29 182.23,-187.69 182.57,-188.02 182.84,-188.28 183.03,-188.48 183.16,-188.6 182.94,-188.38 182.89,-188.28 183.23,-188.92 183.75,-189.94 184.45,-191.28 185.29,-192.89 186.25,-194.75 187.31,-196.78 188.44,-198.96 189.62,-201.23 190.82,-203.54 192.03,-205.86 193.21,-208.13 194.34,-210.31 195.39,-212.34 196.36,-214.19 197.2,-215.81 197.89,-217.15 198.42,-218.17 198.75,-218.81 198.84,-218.97 198.89,-219.09 199.11,-219.63 199.47,-220.48 199.94,-221.61 200.51,-222.97 201.17,-224.53 201.89,-226.24 202.65,-228.07 203.45,-229.98 204.27,-231.93 205.08,-233.87 205.88,-235.78 206.65,-237.61 207.37,-239.33 208.02,-240.88 208.59,-242.24 209.06,-243.37 209.42,-244.23 209.65,-244.77 209.73,-244.95 209.98,-245.58 210.72,-247.39 211.89,-250.26 213.43,-254.06 215.29,-258.63 217.41,-263.87 219.75,-269.63 222.26,-275.79 224.86,-282.21 227.53,-288.76 230.19,-295.32 232.8,-301.74 235.3,-307.89 237.64,-313.66 239.77,-318.89 241.63,-323.47 243.17,-327.26 244.33,-330.13 245.07,-331.95 245.31,-332.55 245.32,-332.57 245.32,-332.74 245.32,-333.01 245.32,-333.39 245.32,-333.87 245.33,-334.43 245.33,-335.08 245.34,-335.81 245.34,-336.61 245.35,-337.49 245.35,-338.42 245.36,-339.42 245.36,-340.46 245.37,-341.56 245.38,-342.69 245.39,-343.86 245.39,-345.07 245.4,-346.3 245.41,-347.54 245.42,-348.81 245.42,-348.81 245.44,-347.54 245.47,-346.3 245.49,-345.07 245.51,-343.87 245.54,-342.69 245.56,-341.56 245.58,-340.47 245.6,-339.42 245.62,-338.42 245.64,-337.49 245.66,-336.62 245.68,-335.81 245.69,-335.08 245.7,-334.43 245.72,-333.87 245.73,-333.39 245.73,-333.02 245.74,-332.74 245.74,-332.57 245.74,-332.47 245.49,-331.79 244.8,-329.95 243.71,-327.05 242.27,-323.22 240.53,-318.6 238.54,-313.3 236.35,-307.48 234.01,-301.26 231.57,-294.77 229.08,-288.16 226.59,-281.54 224.15,-275.05 221.82,-268.83 219.63,-263.01 217.64,-257.72 215.9,-253.09 214.46,-249.26 213.37,-246.36 212.68,-244.52 212.43,-243.87 212.36,-243.67 212.14,-243.13 211.81,-242.26 211.37,-241.13 210.83,-239.75 210.22,-238.18 209.55,-236.44 208.83,-234.59 208.08,-232.67 207.31,-230.7 206.55,-228.73 205.8,-226.8 205.08,-224.95 204.41,-223.22 203.8,-221.64 203.26,-220.27 202.82,-219.13 202.48,-218.27 202.27,-217.72 202.17,-217.46 202.03,-217.16 201.71,-216.51 201.21,-215.49 200.55,-214.13 199.75,-212.49 198.84,-210.61 197.83,-208.55 196.76,-206.34 195.64,-204.04 194.5,-201.7 193.36,-199.35 192.24,-197.05 191.17,-194.84 190.16,-192.78 189.25,-190.9 188.45,-189.26 187.79,-187.91 187.29,-186.88 186.97,-186.23 186.7,-185.67 186.4,-185.37 186.28,-185.25 186.09,-185.05 185.83,-184.78 185.5,-184.44 185.11,-184.03 184.65,-183.57 184.15,-183.04 183.59,-182.46 182.98,-181.84 182.33,-181.16 181.64,-180.45 180.91,-179.7 180.15,-178.91 179.36,-178.09 178.55,-177.25 177.71,-176.39 176.86,-175.5 175.99,-174.6 175.12,-173.7 171.57,-177.22"/>
</g>
<!-- d -->
<g id="node4" class="node">
<title>d</title>
<defs>
<radialGradient id="node4_r_3" cx="50%" cy="50%" r="75%" fx="50%" fy="50%">
<stop offset="0" style="stop-color:#cbff00;stop-opacity:1.;"/>
<stop offset="1" style="stop-color:#7fa800;stop-opacity:1.;"/>
</radialGradient>
</defs>
<ellipse fill="url(#node4_r_3)" stroke="#cbff00" cx="162.34" cy="-343.3" rx="20.51" ry="20.51"/>
<text text-anchor="middle" x="162.34" y="-340.5" font-family="Times,serif" font-size="14.00" fill="#658600">d</text>
</g>
<!-- a&#45;&gt;d -->
<g id="edge3" class="edge">
<title>a&#45;&gt;d</title>
<polygon fill="#7f2a00" stroke="none" stroke-width="5" points="148.24,-178.62 146.63,-182.42 144.95,-186.41 143.2,-190.54 141.41,-194.78 139.6,-199.09 137.77,-203.41 135.95,-207.72 134.16,-211.96 132.41,-216.11 130.72,-220.11 129.11,-223.92 127.59,-227.51 126.19,-230.84 124.91,-233.85 123.79,-236.51 122.83,-238.78 122.05,-240.62 121.48,-241.99 121.12,-242.84 120.76,-243.66 121.13,-244.58 121.59,-245.67 122.33,-247.41 123.31,-249.75 124.53,-252.64 125.95,-256.03 127.56,-259.84 129.33,-264.04 131.23,-268.57 133.25,-273.36 135.36,-278.38 137.54,-283.55 139.76,-288.83 142.01,-294.16 144.25,-299.48 146.46,-304.74 148.63,-309.89 150.73,-314.87 152.73,-319.62 154.61,-324.1 154.61,-324.1 152.87,-319.56 151.02,-314.75 149.09,-309.71 147.09,-304.49 145.04,-299.16 142.97,-293.77 140.9,-288.37 138.84,-283.03 136.83,-277.79 134.88,-272.71 133.02,-267.85 131.26,-263.27 129.62,-259.01 128.14,-255.15 126.82,-251.72 125.7,-248.79 124.79,-246.42 124.11,-244.65 123.69,-243.55 123.76,-243.71 123.66,-243.96 124.04,-243.12 124.66,-241.78 125.5,-239.96 126.53,-237.72 127.74,-235.1 129.11,-232.12 130.62,-228.85 132.25,-225.31 133.98,-221.55 135.79,-217.6 137.67,-213.51 139.6,-209.33 141.56,-205.08 143.52,-200.82 145.47,-196.57 147.4,-192.39 149.28,-188.32 151.09,-184.38 152.81,-180.64 148.24,-178.62"/>
</g>
<!-- e -->
<g id="node5" class="node">
<title>e</title>
<defs>
<radialGradient id="node5_r_4" cx="50%" cy="50%" r="75%" fx="50%" fy="50%">
<stop offset="0" style="stop-color:#88ff00;stop-opacity:1.;"/>
<stop offset="1" style="stop-color:#55a800;stop-opacity:1.;"/>
</radialGradient>
</defs>
<ellipse fill="url(#node5_r_4)" stroke="#88ff00" cx="20.21" cy="-317.33" rx="20.51" ry="20.51"/>
<text text-anchor="middle" x="20.21" y="-314.53" font-family="Times,serif" font-size="14.00" fill="#448600">e</text>
</g>
<!-- a&#45;&gt;e -->
<g id="edge4" class="edge">
<title>a&#45;&gt;e</title>
<polygon fill="#7f2a00" stroke="none" stroke-width="5" points="143.15,-174.74 139.01,-179.56 134.45,-184.87 129.52,-190.61 124.27,-196.72 118.74,-203.15 112.97,-209.86 107.03,-216.78 100.94,-223.86 94.76,-231.05 88.54,-238.3 82.31,-245.54 76.13,-252.73 70.05,-259.81 64.1,-266.73 58.34,-273.43 52.81,-279.86 47.56,-285.97 42.64,-291.7 38.09,-297 33.95,-301.81 33.95,-301.81 38.23,-297.12 42.94,-291.96 48.03,-286.38 53.46,-280.44 59.18,-274.17 65.14,-267.64 71.28,-260.91 77.58,-254.01 83.97,-247.01 90.41,-239.95 96.84,-232.9 103.24,-225.9 109.53,-219 115.68,-212.26 121.64,-205.73 127.36,-199.46 132.8,-193.51 137.9,-187.92 142.61,-182.75 146.9,-178.06 143.15,-174.74"/>
</g>
<!-- f -->
<g id="node6" class="node">
<title>f</title>
<defs>
<radialGradient id="node6_r_5" cx="50%" cy="50%" r="75%" fx="50%" fy="50%">
<stop offset="0" style="stop-color:#44ff00;stop-opacity:1.;"/>
<stop offset="1" style="stop-color:#2ba800;stop-opacity:1.;"/>
</radialGradient>
</defs>
<ellipse fill="url(#node6_r_5)" stroke="#44ff00" cx="397.99" cy="-240" rx="20.51" ry="20.51"/>
<text text-anchor="middle" x="397.99" y="-237.2" font-family="Times,serif" font-size="14.00" fill="#228600">f</text>
</g>
<!-- a&#45;&gt;f -->
<g id="edge5" class="edge">
<title>a&#45;&gt;f</title>
<polygon fill="#7f2a00" stroke="none" stroke-width="5" points="176.45,-172.15 181.07,-174.32 186,-176.64 191.18,-179.08 196.55,-181.6 202.05,-184.19 207.62,-186.81 213.21,-189.44 218.76,-192.05 224.19,-194.61 229.47,-197.09 234.53,-199.47 239.3,-201.71 243.73,-203.8 247.76,-205.7 251.34,-207.38 254.4,-208.81 256.88,-209.98 258.72,-210.85 259.87,-211.39 260.3,-211.59 260.53,-211.69 261.08,-211.91 261.93,-212.25 263.07,-212.71 264.44,-213.26 266,-213.89 267.73,-214.58 269.57,-215.32 271.49,-216.09 273.45,-216.88 275.41,-217.66 277.33,-218.44 279.17,-219.18 280.89,-219.87 282.46,-220.5 283.83,-221.05 284.96,-221.5 285.82,-221.85 286.37,-222.07 286.67,-222.19 287.22,-222.28 288.46,-222.47 290.45,-222.79 293.12,-223.21 296.42,-223.73 300.27,-224.34 304.63,-225.02 309.41,-225.78 314.56,-226.59 320.02,-227.45 325.71,-228.35 331.59,-229.28 337.58,-230.22 343.62,-231.18 349.64,-232.13 355.59,-233.07 361.41,-233.98 367.01,-234.87 372.36,-235.71 377.37,-236.5 377.37,-236.5 372.38,-235.59 367.06,-234.62 361.47,-233.61 355.68,-232.55 349.75,-231.48 343.75,-230.38 337.74,-229.29 331.77,-228.2 325.92,-227.14 320.24,-226.11 314.81,-225.12 309.68,-224.18 304.92,-223.32 300.58,-222.53 296.74,-221.83 293.46,-221.23 290.79,-220.75 288.81,-220.39 287.58,-220.16 287.27,-220.1 287.2,-220.07 286.66,-219.84 285.81,-219.47 284.68,-218.99 283.33,-218.41 281.78,-217.74 280.07,-217.01 278.25,-216.23 276.34,-215.41 274.4,-214.58 272.46,-213.74 270.56,-212.93 268.74,-212.15 267.03,-211.41 265.48,-210.75 264.12,-210.16 263,-209.68 262.15,-209.32 261.61,-209.09 261.46,-209.02 261.11,-208.84 259.97,-208.27 258.14,-207.36 255.69,-206.14 252.67,-204.63 249.14,-202.86 245.15,-200.87 240.77,-198.68 236.05,-196.33 231.05,-193.83 225.83,-191.23 220.46,-188.54 214.98,-185.8 209.45,-183.04 203.94,-180.29 198.5,-177.57 193.19,-174.92 188.07,-172.37 183.2,-169.93 178.63,-167.65 176.45,-172.15"/>
</g>
<!-- g -->
<g id="node7" class="node">
<title>g</title>
<defs>
<radialGradient id="node7_r_6" cx="50%" cy="50%" r="75%" fx="50%" fy="50%">
<stop offset="0" style="stop-color:#01ff00;stop-opacity:1.;"/>
<stop offset="1" style="stop-color:#01a800;stop-opacity:1.;"/>
</radialGradient>
</defs>
<ellipse fill="url(#node7_r_6)" stroke="#01ff00" cx="287.01" cy="-184.24" rx="20.51" ry="20.51"/>
<text text-anchor="middle" x="287.01" y="-181.44" font-family="Times,serif" font-size="14.00" fill="#008600">g</text>
</g>
<!-- a&#45;&gt;g -->
<g id="edge6" class="edge">
<title>a&#45;&gt;g</title>
<polygon fill="#7f2a00" stroke="none" stroke-width="5" points="178.97,-167.05 182.69,-167.62 186.61,-168.22 190.72,-168.85 195,-169.51 199.41,-170.18 203.93,-170.88 208.55,-171.59 213.24,-172.31 217.97,-173.04 222.73,-173.77 227.48,-174.5 232.21,-175.22 236.9,-175.94 241.52,-176.65 246.04,-177.35 250.45,-178.02 254.72,-178.68 258.83,-179.31 262.75,-179.91 266.47,-180.48 266.47,-180.48 262.79,-179.7 258.91,-178.88 254.84,-178.02 250.61,-177.12 246.25,-176.2 241.77,-175.25 237.2,-174.28 232.57,-173.3 227.88,-172.3 223.18,-171.31 218.47,-170.31 213.78,-169.32 209.14,-168.33 204.57,-167.36 200.09,-166.41 195.73,-165.49 191.5,-164.59 187.43,-163.73 183.55,-162.91 179.87,-162.13 178.97,-167.05"/>
</g>
<!-- b&#45;&gt;a -->
<g id="edge7" class="edge">
<title>b&#45;&gt;a</title>
<polygon fill="#7f5400" stroke="none" stroke-width="5" points="182.07,-223.52 181.57,-221.43 181.06,-219.28 180.53,-217.07 179.98,-214.81 179.43,-212.5 178.87,-210.16 178.3,-207.78 177.73,-205.39 177.15,-202.98 176.57,-200.56 175.99,-198.15 175.41,-195.74 174.84,-193.34 174.27,-190.97 173.71,-188.63 173.16,-186.32 172.61,-184.06 172.08,-181.85 171.57,-179.7 171.07,-177.62 171.07,-177.62 171.35,-179.74 171.63,-181.93 171.92,-184.19 172.22,-186.49 172.53,-188.84 172.84,-191.23 173.15,-193.65 173.47,-196.09 173.79,-198.55 174.11,-201.02 174.43,-203.48 174.75,-205.94 175.07,-208.38 175.38,-210.8 175.69,-213.19 176,-215.54 176.3,-217.85 176.59,-220.1 176.88,-222.3 177.16,-224.42 182.07,-223.52"/>
</g>
<!-- b&#45;&gt;c -->
<g id="edge8" class="edge">
<title>b&#45;&gt;c</title>
<polygon fill="#7f5400" stroke="none" stroke-width="5" points="173.46,-266.14 175.68,-269.84 178.06,-273.81 180.58,-278.03 183.24,-282.46 186,-287.07 188.85,-291.84 191.77,-296.72 194.75,-301.7 197.77,-306.74 200.8,-311.8 203.84,-316.87 206.85,-321.91 209.83,-326.88 212.76,-331.77 215.61,-336.53 218.37,-341.14 221.02,-345.58 223.55,-349.79 225.93,-353.77 228.15,-357.47 228.15,-357.47 226.11,-353.67 223.92,-349.59 221.59,-345.25 219.15,-340.7 216.61,-335.97 213.98,-331.07 211.29,-326.06 208.55,-320.95 205.77,-315.77 202.98,-310.57 200.19,-305.37 197.41,-300.19 194.67,-295.08 191.98,-290.07 189.35,-285.17 186.81,-280.44 184.37,-275.89 182.04,-271.56 179.85,-267.47 177.81,-263.67 173.46,-266.14"/>
</g>
<!-- b&#45;&gt;d -->
<g id="edge9" class="edge">
<title>b&#45;&gt;d</title>
<polygon fill="#7f5400" stroke="none" stroke-width="5" points="160.53,-261.38 160.31,-264.12 160.08,-266.97 159.85,-269.94 159.61,-272.99 159.36,-276.13 159.11,-279.33 158.85,-282.58 158.59,-285.88 158.33,-289.2 158.07,-292.53 157.81,-295.86 157.55,-299.18 157.29,-302.47 157.03,-305.73 156.78,-308.92 156.53,-312.06 156.29,-315.11 156.06,-318.07 155.83,-320.92 155.62,-323.66 155.62,-323.66 156.05,-320.95 156.5,-318.12 156.97,-315.19 157.46,-312.17 157.95,-309.06 158.46,-305.9 158.98,-302.67 159.5,-299.41 160.02,-296.13 160.55,-292.82 161.08,-289.52 161.61,-286.23 162.13,-282.97 162.64,-279.75 163.15,-276.58 163.65,-273.47 164.13,-270.45 164.6,-267.51 165.06,-264.68 165.49,-261.97 160.53,-261.38"/>
</g>
<!-- b&#45;&gt;e -->
<g id="edge10" class="edge">
<title>b&#45;&gt;e</title>
<polygon fill="#7f5400" stroke="none" stroke-width="5" points="154.22,-250.8 149.6,-253.11 144.62,-255.6 139.31,-258.25 133.71,-261.05 127.87,-263.97 121.82,-266.99 115.61,-270.09 109.28,-273.26 102.87,-276.46 96.41,-279.69 89.96,-282.91 83.55,-286.12 77.23,-289.28 71.03,-292.38 64.99,-295.39 59.17,-298.3 53.59,-301.09 48.3,-303.73 43.35,-306.21 38.76,-308.5 38.76,-308.5 43.43,-306.39 48.48,-304.11 53.87,-301.67 59.55,-299.1 65.48,-296.42 71.63,-293.64 77.94,-290.78 84.39,-287.87 90.91,-284.92 97.49,-281.94 104.06,-278.97 110.59,-276.02 117.04,-273.1 123.37,-270.24 129.53,-267.45 135.48,-264.76 141.18,-262.18 146.59,-259.74 151.67,-257.44 156.36,-255.32 154.22,-250.8"/>
</g>
<!-- b&#45;&gt;f -->
<g id="edge11" class="edge">
<title>b&#45;&gt;f</title>
<polygon fill="#7f5400" stroke="none" stroke-width="5" points="194.87,-246.2 201.64,-245.98 209.15,-245.75 217.31,-245.48 226.04,-245.21 235.26,-244.91 244.89,-244.6 254.85,-244.29 265.06,-243.96 275.43,-243.63 285.88,-243.3 296.33,-242.96 306.7,-242.63 316.92,-242.3 326.89,-241.99 336.53,-241.68 345.78,-241.38 354.53,-241.1 362.72,-240.84 370.25,-240.6 377.06,-240.38 377.06,-240.38 370.25,-240.41 362.71,-240.45 354.52,-240.49 345.76,-240.52 336.51,-240.57 326.86,-240.61 316.89,-240.65 306.67,-240.7 296.29,-240.75 285.83,-240.79 275.37,-240.84 265,-240.89 254.79,-240.93 244.83,-240.98 235.19,-241.02 225.97,-241.06 217.23,-241.1 209.07,-241.14 201.55,-241.17 194.78,-241.2 194.87,-246.2"/>
</g>
<!-- b&#45;&gt;g -->
<g id="edge12" class="edge">
<title>b&#45;&gt;g</title>
<polygon fill="#7f5400" stroke="none" stroke-width="5" points="193.72,-236.54 196.91,-234.72 200.28,-232.81 203.81,-230.81 207.46,-228.73 211.24,-226.59 215.11,-224.39 219.06,-222.14 223.07,-219.87 227.12,-217.57 231.18,-215.26 235.25,-212.95 239.29,-210.65 243.3,-208.37 247.25,-206.13 251.12,-203.93 254.9,-201.79 258.56,-199.71 262.08,-197.71 265.45,-195.79 268.64,-193.98 268.64,-193.98 265.35,-195.61 261.87,-197.32 258.24,-199.11 254.47,-200.98 250.58,-202.9 246.58,-204.87 242.51,-206.88 238.38,-208.92 234.2,-210.98 230.01,-213.05 225.82,-215.12 221.64,-217.18 217.51,-219.22 213.44,-221.23 209.44,-223.2 205.55,-225.12 201.78,-226.99 198.14,-228.78 194.67,-230.5 191.38,-232.12 193.72,-236.54"/>
</g>
<!-- c&#45;&gt;a -->
<g id="edge13" class="edge">
<title>c&#45;&gt;a</title>
<polygon fill="#7f7e00" stroke="none" stroke-width="5" points="252.73,-349.8 253.06,-348.39 253.39,-347 253.71,-345.63 254.03,-344.28 254.34,-342.96 254.64,-341.67 254.94,-340.43 255.22,-339.24 255.48,-338.11 255.73,-337.05 255.97,-336.05 256.19,-335.13 256.38,-334.29 256.56,-333.54 256.71,-332.89 256.84,-332.35 256.94,-331.91 257.02,-331.59 257.07,-331.39 257.24,-330.7 256.81,-329.42 256.17,-327.52 255.15,-324.52 253.81,-320.56 252.19,-315.78 250.34,-310.31 248.3,-304.29 246.12,-297.86 243.85,-291.15 241.54,-284.31 239.22,-277.47 236.95,-270.76 234.77,-264.33 232.73,-258.31 230.88,-252.84 229.26,-248.06 227.92,-244.1 226.9,-241.1 226.26,-239.2 226.02,-238.51 225.93,-238.28 225.69,-237.72 225.33,-236.85 224.84,-235.69 224.26,-234.3 223.59,-232.7 222.86,-230.95 222.07,-229.07 221.25,-227.11 220.42,-225.12 219.58,-223.12 218.76,-221.17 217.98,-219.29 217.24,-217.53 216.57,-215.94 215.99,-214.54 215.51,-213.39 215.14,-212.51 214.91,-211.96 214.8,-211.7 214.61,-211.42 214.18,-210.77 213.5,-209.75 212.6,-208.4 211.51,-206.77 210.27,-204.91 208.9,-202.86 207.44,-200.67 205.91,-198.39 204.36,-196.06 202.8,-193.73 201.28,-191.44 199.82,-189.25 198.45,-187.2 197.2,-185.34 196.12,-183.71 195.22,-182.36 194.54,-181.34 194.1,-180.7 193.92,-180.42 193.81,-180.36 193.62,-180.25 193.32,-180.09 192.91,-179.86 192.4,-179.58 191.79,-179.25 191.1,-178.87 190.32,-178.44 189.46,-177.96 188.53,-177.45 187.53,-176.9 186.48,-176.33 185.37,-175.72 184.22,-175.08 183.03,-174.43 181.8,-173.75 180.55,-173.07 179.28,-172.37 177.99,-171.66 176.69,-170.94 176.69,-170.94 177.97,-171.69 179.24,-172.43 180.5,-173.16 181.73,-173.88 182.94,-174.58 184.12,-175.27 185.25,-175.93 186.34,-176.57 187.38,-177.17 188.36,-177.74 189.28,-178.28 190.13,-178.77 190.9,-179.22 191.58,-179.62 192.18,-179.97 192.69,-180.26 193.09,-180.5 193.39,-180.67 193.57,-180.78 193.58,-180.78 193.69,-180.96 194.11,-181.62 194.76,-182.66 195.63,-184.03 196.68,-185.68 197.87,-187.58 199.19,-189.66 200.6,-191.89 202.06,-194.21 203.56,-196.58 205.06,-198.94 206.53,-201.26 207.93,-203.49 209.25,-205.57 210.45,-207.47 211.49,-209.12 212.36,-210.49 213.02,-211.53 213.43,-212.19 213.54,-212.36 213.59,-212.49 213.81,-213.05 214.15,-213.93 214.61,-215.1 215.16,-216.51 215.79,-218.12 216.48,-219.9 217.22,-221.79 217.99,-223.77 218.77,-225.78 219.56,-227.8 220.33,-229.78 221.07,-231.67 221.76,-233.44 222.39,-235.06 222.94,-236.46 223.39,-237.63 223.74,-238.51 223.95,-239.07 224.02,-239.24 224.21,-239.87 224.81,-241.78 225.75,-244.81 226.99,-248.8 228.49,-253.62 230.21,-259.13 232.1,-265.2 234.12,-271.68 236.22,-278.44 238.37,-285.34 240.51,-292.24 242.62,-299 244.64,-305.48 246.52,-311.55 248.24,-317.06 249.74,-321.88 250.98,-325.87 251.93,-328.9 252.52,-330.81 252.53,-330.86 252.67,-330.3 252.62,-330.5 252.53,-330.81 252.42,-331.25 252.28,-331.79 252.11,-332.44 251.91,-333.18 251.7,-334.01 251.46,-334.93 251.2,-335.92 250.92,-336.98 250.62,-338.1 250.31,-339.28 249.99,-340.52 249.66,-341.79 249.31,-343.1 248.96,-344.45 248.6,-345.81 248.24,-347.2 247.88,-348.59 252.73,-349.8"/>
</g>
<!-- c&#45;&gt;b -->
<g id="edge14" class="edge">
<title>c&#45;&gt;b</title>
<polygon fill="#7f7e00" stroke="none" stroke-width="5" points="245.98,-347.36 243.76,-343.66 241.38,-339.68 238.86,-335.46 236.21,-331.03 233.44,-326.42 230.59,-321.66 227.67,-316.77 224.69,-311.8 221.67,-306.76 218.64,-301.69 215.6,-296.63 212.59,-291.59 209.61,-286.61 206.68,-281.73 203.83,-276.96 201.07,-272.35 198.42,-267.92 195.89,-263.7 193.51,-259.73 191.3,-256.03 191.3,-256.03 193.34,-259.83 195.53,-263.91 197.85,-268.24 200.29,-272.79 202.83,-277.53 205.46,-282.42 208.15,-287.44 210.89,-292.55 213.67,-297.72 216.46,-302.93 219.26,-308.13 222.03,-313.3 224.77,-318.42 227.47,-323.43 230.09,-328.32 232.63,-333.06 235.08,-337.61 237.4,-341.94 239.59,-346.02 241.63,-349.83 245.98,-347.36"/>
</g>
<!-- c&#45;&gt;d -->
<g id="edge15" class="edge">
<title>c&#45;&gt;d</title>
<polygon fill="#7f7e00" stroke="none" stroke-width="5" points="230.73,-352.78 228.57,-352.22 226.34,-351.64 224.05,-351.05 221.7,-350.43 219.3,-349.81 216.86,-349.18 214.39,-348.53 211.89,-347.89 209.38,-347.23 206.86,-346.58 204.35,-345.92 201.83,-345.27 199.34,-344.62 196.87,-343.98 194.43,-343.35 192.03,-342.72 189.68,-342.11 187.39,-341.51 185.16,-340.93 183,-340.37 183,-340.37 185.09,-341.15 187.25,-341.95 189.47,-342.78 191.75,-343.62 194.07,-344.49 196.43,-345.36 198.83,-346.25 201.24,-347.15 203.67,-348.06 206.11,-348.96 208.55,-349.87 210.98,-350.77 213.4,-351.67 215.79,-352.56 218.16,-353.44 220.48,-354.3 222.76,-355.15 224.98,-355.97 227.14,-356.78 229.23,-357.55 230.73,-352.78"/>
</g>
<!-- c&#45;&gt;e -->
<g id="edge16" class="edge">
<title>c&#45;&gt;e</title>
<polygon fill="#7f7e00" stroke="none" stroke-width="5" points="224.43,-369.61 220.65,-370.15 216.72,-370.71 212.66,-371.29 208.52,-371.88 204.33,-372.48 200.13,-373.08 195.96,-373.68 191.86,-374.26 187.87,-374.83 184.03,-375.38 180.37,-375.91 176.93,-376.4 173.75,-376.85 170.87,-377.26 168.33,-377.63 166.17,-377.93 164.42,-378.18 163.12,-378.37 162.31,-378.49 162.49,-378.47 162.72,-378.57 162.18,-378.35 161.32,-378 160.18,-377.55 158.81,-376.99 157.25,-376.37 155.52,-375.67 153.68,-374.93 151.76,-374.16 149.8,-373.37 147.84,-372.58 145.92,-371.81 144.08,-371.07 142.36,-370.38 140.79,-369.75 139.42,-369.2 138.29,-368.74 137.43,-368.4 136.89,-368.18 136.71,-368.11 136.26,-367.91 134.9,-367.32 132.71,-366.38 129.78,-365.11 126.17,-363.54 121.96,-361.71 117.21,-359.66 112,-357.4 106.39,-354.97 100.47,-352.4 94.29,-349.72 87.94,-346.97 81.49,-344.17 75,-341.36 68.55,-338.57 62.21,-335.82 56.04,-333.15 50.13,-330.59 44.55,-328.17 39.36,-325.92 39.36,-325.92 44.49,-328.3 50.01,-330.86 55.86,-333.57 61.95,-336.39 68.22,-339.3 74.6,-342.26 81.01,-345.24 87.39,-348.2 93.67,-351.11 99.78,-353.94 105.63,-356.66 111.17,-359.23 116.33,-361.62 121.03,-363.79 125.19,-365.73 128.76,-367.38 131.66,-368.73 133.82,-369.73 135.16,-370.35 135.65,-370.58 135.85,-370.66 136.39,-370.9 137.24,-371.26 138.36,-371.75 139.72,-372.33 141.26,-373 142.97,-373.74 144.79,-374.53 146.69,-375.35 148.63,-376.18 150.57,-377.02 152.47,-377.84 154.29,-378.63 156,-379.36 157.55,-380.03 158.9,-380.62 160.02,-381.1 160.87,-381.47 161.41,-381.7 162.02,-381.96 162.75,-381.87 163.56,-381.77 164.86,-381.62 166.62,-381.41 168.79,-381.16 171.34,-380.86 174.23,-380.52 177.42,-380.15 180.87,-379.75 184.54,-379.32 188.4,-378.86 192.4,-378.39 196.51,-377.91 200.69,-377.42 204.9,-376.93 209.11,-376.44 213.26,-375.95 217.34,-375.47 221.29,-375.01 225.07,-374.57 224.43,-369.61"/>
</g>
<!-- c&#45;&gt;f -->
<g id="edge17" class="edge">
<title>c&#45;&gt;f</title>
<polygon fill="#7f7e00" stroke="none" stroke-width="5" points="262.66,-357.96 267.23,-353.97 272.23,-349.59 277.64,-344.86 283.38,-339.83 289.42,-334.55 295.71,-329.05 302.19,-323.38 308.82,-317.58 315.55,-311.69 322.33,-305.76 329.11,-299.83 335.84,-293.94 342.47,-288.14 348.96,-282.46 355.25,-276.96 361.3,-271.66 367.06,-266.63 372.47,-261.89 377.5,-257.5 382.08,-253.49 382.08,-253.49 377.37,-257.35 372.21,-261.58 366.65,-266.15 360.74,-271 354.53,-276.1 348.06,-281.4 341.4,-286.87 334.59,-292.46 327.67,-298.14 320.71,-303.85 313.75,-309.57 306.84,-315.24 300.03,-320.83 293.37,-326.29 286.91,-331.59 280.71,-336.68 274.81,-341.52 269.26,-346.08 264.12,-350.3 259.42,-354.15 262.66,-357.96"/>
</g>
<!-- c&#45;&gt;g -->
<g id="edge18" class="edge">
<title>c&#45;&gt;g</title>
<polygon fill="#7f7e00" stroke="none" stroke-width="5" points="252.26,-349.8 253.43,-344.17 254.7,-338.04 256.07,-331.44 257.52,-324.45 259.05,-317.12 260.63,-309.5 262.26,-301.65 263.93,-293.63 265.62,-285.49 267.32,-277.3 269.02,-269.11 270.71,-260.97 272.38,-252.94 274.01,-245.08 275.6,-237.45 277.12,-230.1 278.58,-223.09 279.95,-216.48 281.23,-210.31 282.41,-204.66 282.41,-204.66 281.04,-210.27 279.56,-216.39 277.96,-222.95 276.27,-229.91 274.5,-237.2 272.65,-244.77 270.76,-252.57 268.82,-260.54 266.85,-268.62 264.88,-276.75 262.9,-284.88 260.94,-292.95 259,-300.91 257.11,-308.7 255.27,-316.27 253.5,-323.54 251.81,-330.48 250.22,-337.03 248.74,-343.12 247.38,-348.7 252.26,-349.8"/>
</g>
<!-- d&#45;&gt;a -->
<g id="edge19" class="edge">
<title>d&#45;&gt;a</title>
<path fill="none" stroke="#7fa800" d="M157.26,-323.16C149.94,-294.06 137.26,-243.75 137.26,-243.75 137.26,-243.75 144.75,-214.94 150.9,-191.28"/>
<polygon fill="#7fa800" stroke="#7fa800" points="154.47,-192.46 153.6,-181.9 147.7,-190.69 154.47,-192.46"/>
</g>
<!-- d&#45;&gt;b -->
<g id="edge20" class="edge">
<title>d&#45;&gt;b</title>
<path fill="none" stroke="#7fa800" d="M173.5,-325.7C175.22,-311.29 177.63,-291.07 179.61,-274.5"/>
<polygon fill="#7fa800" stroke="#7fa800" points="183.18,-275.07 180.89,-264.72 176.23,-274.24 183.18,-275.07"/>
</g>
<!-- d&#45;&gt;c -->
<g id="edge21" class="edge">
<title>d&#45;&gt;c</title>
<path fill="none" stroke="#7fa800" d="M177.63,-357.55C188.39,-360.94 202.29,-365.32 214.47,-369.16"/>
<polygon fill="#7fa800" stroke="#7fa800" points="213.02,-372.68 223.61,-372.35 215.12,-366.01 213.02,-372.68"/>
</g>
<!-- d&#45;&gt;e -->
<g id="edge22" class="edge">
<title>d&#45;&gt;e</title>
<path fill="none" stroke="#7fa800" d="M141.98,-339.58C118.23,-335.24 78.72,-328.02 51.17,-322.99"/>
<polygon fill="#7fa800" stroke="#7fa800" points="52,-319.4 41.53,-321.04 50.74,-326.28 52,-319.4"/>
</g>
<!-- d&#45;&gt;f -->
<g id="edge23" class="edge">
<title>d&#45;&gt;f</title>
<path fill="none" stroke="#7fa800" d="M181.23,-335.02C222.33,-317 320.14,-274.13 369.07,-252.68"/>
<polygon fill="#7fa800" stroke="#7fa800" points="370.26,-255.54 378.01,-248.32 367.45,-249.13 370.26,-255.54"/>
</g>
<!-- d&#45;&gt;g -->
<g id="edge24" class="edge">
<title>d&#45;&gt;g</title>
<path fill="none" stroke="#7fa800" d="M175.21,-326.88C197.16,-298.87 241.95,-241.73 267.68,-208.9"/>
<polygon fill="#7fa800" stroke="#7fa800" points="270.98,-211.36 274.39,-201.33 265.47,-207.05 270.98,-211.36"/>
</g>
<!-- h -->
<g id="node8" class="node">
<title>h</title>
<ellipse fill="#00a800" stroke="#00a800" cx="504.89" cy="-214.96" rx="27" ry="20.51"/>
<text text-anchor="middle" x="504.89" y="-212.16" font-family="Times,serif" font-size="14.00" fill="#ffffff">h</text>
</g>
<!-- f&#45;&gt;h -->
<g id="edge38" class="edge">
<title>f&#45;&gt;h</title>
<path fill="none" stroke="#000000" stroke-dasharray="5,2" d="M418.1,-235.29C432.19,-231.99 451.43,-227.48 468.21,-223.55"/>
<polygon fill="#000000" stroke="#000000" points="468.87,-226.76 477.81,-221.07 467.27,-219.94 468.87,-226.76"/>
</g>
<!-- i -->
<g id="node9" class="node">
<title>i</title>
<ellipse fill="#00a82a" stroke="#00a82a" cx="456.42" cy="-20.9" rx="27" ry="20.51"/>
<text text-anchor="middle" x="456.42" y="-18.1" font-family="Times,serif" font-size="14.00" fill="#ffffff">i</text>
</g>
<!-- f&#45;&gt;i -->
<g id="edge39" class="edge">
<title>f&#45;&gt;i</title>
<path fill="none" stroke="#000000" stroke-dasharray="5,2" d="M403.38,-219.78C413.64,-181.32 436.02,-97.4 448.17,-51.83"/>
<polygon fill="#000000" stroke="#000000" points="451.76,-52.95 450.96,-42.39 445,-51.15 451.76,-52.95"/>
</g>
<!-- j -->
<g id="node10" class="node">
<title>j</title>
<ellipse fill="#00a854" stroke="#00a854" cx="575.93" cy="-29.81" rx="27" ry="20.51"/>
<text text-anchor="middle" x="575.93" y="-27.01" font-family="Times,serif" font-size="14.00" fill="#ffffff">j</text>
</g>
<!-- f&#45;&gt;j -->
<g id="edge40" class="edge">
<title>f&#45;&gt;j</title>
<path fill="none" stroke="#000000" stroke-dasharray="5,2" d="M411.36,-224.2C441.9,-188.13 516.98,-99.45 554.24,-55.44"/>
<polygon fill="#000000" stroke="#000000" points="557.37,-58.15 561.16,-48.26 552.03,-53.63 557.37,-58.15"/>
</g>
<!-- k -->
<g id="node11" class="node">
<title>k</title>
<ellipse fill="none" stroke="#00a87e" cx="658.95" cy="-125.75" rx="27" ry="20.51"/>
<text text-anchor="middle" x="658.95" y="-122.95" font-family="Times,serif" font-size="14.00" fill="#00a87e">k</text>
</g>
<!-- f&#45;&gt;k -->
<g id="edge41" class="edge">
<title>f&#45;&gt;k</title>
<path fill="none" stroke="#000000" stroke-dasharray="5,2" d="M414.88,-228.09C436.4,-212.91 470.83,-188.63 470.83,-188.63 470.83,-188.63 569.24,-155.73 623.7,-137.53"/>
<polygon fill="#000000" stroke="#000000" points="624.59,-140.59 632.97,-134.1 622.37,-133.95 624.59,-140.59"/>
</g>
<!-- l -->
<g id="node12" class="node">
<title>l</title>
<ellipse fill="none" stroke="#00a8a8" cx="529.52" cy="-429.39" rx="27" ry="20.51"/>
<text text-anchor="middle" x="529.52" y="-426.59" font-family="Times,serif" font-size="14.00" fill="#00a8a8">l</text>
</g>
<!-- f&#45;&gt;l -->
<g id="edge42" class="edge">
<title>f&#45;&gt;l</title>
<path fill="none" stroke="#000000" stroke-dasharray="5,2" d="M409.89,-257.14C432.79,-290.1 483.11,-362.55 510.63,-402.18"/>
<polygon fill="#000000" stroke="#000000" points="508.2,-403.82 516.78,-410.04 513.95,-399.83 508.2,-403.82"/>
</g>
<!-- m -->
<g id="node13" class="node">
<title>m</title>
<defs>
<radialGradient id="node13_r_7" cx="50%" cy="50%" r="75%" fx="50%" fy="50%">
<stop offset="0" style="stop-color:#00bdfc;stop-opacity:1.;"/>
<stop offset="1" style="stop-color:#007ea8;stop-opacity:1.;"/>
</radialGradient>
</defs>
<polygon fill="url(#node13_r_7)" stroke="#00bdfc" points="632.63,-198.84 634.39,-198.95 636.13,-199.12 637.85,-199.34 639.54,-199.62 641.18,-199.95 642.78,-200.33 644.33,-200.77 645.82,-201.26 647.25,-201.8 648.61,-202.38 649.9,-203.01 651.11,-203.69 652.24,-204.41 653.28,-205.17 654.24,-205.97 655.1,-206.8 655.88,-207.67 656.56,-208.57 657.15,-209.5 657.64,-210.46 658.04,-211.44 658.35,-212.44 658.56,-213.46 658.68,-214.5 658.71,-215.55 658.66,-216.61 658.52,-217.68 658.3,-218.76 658,-219.83 657.62,-220.9 657.18,-221.97 656.66,-223.03 656.08,-224.08 655.44,-225.12 654.74,-226.14 653.99,-227.15 653.19,-228.13 652.34,-229.08 651.45,-230.01 650.53,-230.92 649.57,-231.78 648.58,-232.62 647.56,-233.42 646.51,-234.18 645.45,-234.9 644.36,-235.57 643.26,-236.2 642.15,-236.79 641.02,-237.33 639.88,-237.81 638.73,-238.25 637.58,-238.64 636.42,-238.97 635.25,-239.25 634.08,-239.47 632.91,-239.64 631.73,-239.75 630.56,-239.81 629.38,-239.81 628.21,-239.75 627.03,-239.64 625.86,-239.47 624.69,-239.25 623.52,-238.97 622.36,-238.64 621.21,-238.25 620.06,-237.81 618.92,-237.33 617.79,-236.79 616.68,-236.2 615.58,-235.57 614.49,-234.9 613.43,-234.18 612.38,-233.42 611.37,-232.62 610.37,-231.78 609.41,-230.92 608.49,-230.01 607.6,-229.08 606.75,-228.13 605.95,-227.15 605.2,-226.14 604.5,-225.12 603.86,-224.08 603.28,-223.03 602.76,-221.97 602.32,-220.9 601.94,-219.83 601.64,-218.76 601.42,-217.68 601.28,-216.61 601.23,-215.55 601.26,-214.5 601.38,-213.46 601.6,-212.44 601.9,-211.44 602.3,-210.46 602.8,-209.5 603.38,-208.57 604.07,-207.67 604.84,-206.8 605.71,-205.97 606.66,-205.17 607.71,-204.41 608.83,-203.69 610.04,-203.01 611.33,-202.38 612.69,-201.8 614.12,-201.26 615.61,-200.77 617.16,-200.33 618.76,-199.95 620.4,-199.62 622.09,-199.34 623.81,-199.12 625.55,-198.95 627.31,-198.84 629.08,-198.78 630.86,-198.78 632.63,-198.84"/>
<text text-anchor="middle" x="629.97" y="-216.49" font-family="Times,serif" font-size="14.00" fill="#00ffff">m</text>
</g>
<!-- f&#45;&gt;m -->
<g id="edge43" class="edge">
<title>f&#45;&gt;m</title>
<path fill="none" stroke="#000000" stroke-dasharray="5,2" d="M418.77,-242.32C449.76,-245.77 504.46,-251.87 504.46,-251.87 504.46,-251.87 557.01,-238.23 594.1,-228.6"/>
<polygon fill="#000000" stroke="#000000" points="594.77,-231.78 603.57,-225.88 593.01,-225.01 594.77,-231.78"/>
</g>
<!-- n -->
<g id="node14" class="node">
<title>n</title>
<defs>
<radialGradient id="node14_r_8" cx="50%" cy="50%" r="75%" fx="50%" fy="50%">
<stop offset="0" style="stop-color:#007efc;stop-opacity:1.;"/>
<stop offset="1" style="stop-color:#0054a8;stop-opacity:1.;"/>
</radialGradient>
</defs>
<polygon fill="url(#node14_r_8)" stroke="#007efc" points="654.93,-336.27 656.69,-336.38 658.43,-336.55 660.15,-336.77 661.83,-337.05 663.48,-337.38 665.08,-337.77 666.63,-338.2 668.12,-338.69 669.55,-339.23 670.91,-339.81 672.19,-340.44 673.4,-341.12 674.53,-341.84 675.57,-342.6 676.53,-343.4 677.4,-344.23 678.17,-345.1 678.85,-346 679.44,-346.93 679.94,-347.89 680.33,-348.87 680.64,-349.87 680.85,-350.9 680.98,-351.93 681.01,-352.98 680.96,-354.05 680.82,-355.11 680.6,-356.19 680.3,-357.26 679.92,-358.33 679.47,-359.4 678.96,-360.46 678.38,-361.51 677.73,-362.55 677.04,-363.57 676.28,-364.58 675.48,-365.56 674.64,-366.52 673.75,-367.45 672.82,-368.35 671.86,-369.22 670.87,-370.05 669.85,-370.85 668.81,-371.61 667.74,-372.33 666.66,-373 665.56,-373.64 664.44,-374.22 663.31,-374.76 662.18,-375.25 661.03,-375.68 659.87,-376.07 658.71,-376.4 657.55,-376.68 656.38,-376.9 655.2,-377.07 654.03,-377.18 652.85,-377.24 651.68,-377.24 650.5,-377.18 649.33,-377.07 648.16,-376.9 646.99,-376.68 645.82,-376.4 644.66,-376.07 643.5,-375.68 642.36,-375.25 641.22,-374.76 640.09,-374.22 638.97,-373.64 637.87,-373 636.79,-372.33 635.72,-371.61 634.68,-370.85 633.66,-370.05 632.67,-369.22 631.71,-368.35 630.78,-367.45 629.9,-366.52 629.05,-365.56 628.25,-364.58 627.5,-363.57 626.8,-362.55 626.16,-361.51 625.58,-360.46 625.06,-359.4 624.61,-358.33 624.24,-357.26 623.94,-356.19 623.72,-355.11 623.58,-354.05 623.52,-352.98 623.56,-351.93 623.68,-350.9 623.89,-349.87 624.2,-348.87 624.6,-347.89 625.09,-346.93 625.68,-346 626.36,-345.1 627.14,-344.23 628,-343.4 628.96,-342.6 630,-341.84 631.13,-341.12 632.34,-340.44 633.63,-339.81 634.98,-339.23 636.41,-338.69 637.9,-338.2 639.45,-337.77 641.05,-337.38 642.7,-337.05 644.38,-336.77 646.1,-336.55 647.85,-336.38 649.61,-336.27 651.38,-336.21 653.15,-336.21 654.93,-336.27"/>
<text text-anchor="middle" x="652.27" y="-353.92" font-family="Times,serif" font-size="14.00" fill="#00ffff">n</text>
</g>
<!-- f&#45;&gt;n -->
<g id="edge44" class="edge">
<title>f&#45;&gt;n</title>
<path fill="none" stroke="#000000" stroke-dasharray="5,2" d="M416.69,-248.59C458.71,-267.87 561.22,-314.93 616.14,-340.14"/>
<polygon fill="#000000" stroke="#000000" points="614.58,-343.74 625.13,-344.73 617.5,-337.38 614.58,-343.74"/>
</g>
<!-- g&#45;&gt;h -->
<g id="edge37" class="edge">
<title>g&#45;&gt;h</title>
<path fill="none" stroke="#000000" stroke-width="2" stroke-dasharray="1,5" d="M307.51,-187.13C347.02,-192.7 433.72,-204.92 477.88,-211.15"/>
</g>
<!-- h&#45;&gt;i -->
<g id="edge25" class="edge">
<title>h&#45;&gt;i</title>
<path fill="none" stroke="#00a800" d="M499.8,-194.56C491.29,-160.49 474.13,-91.82 464.14,-51.8"/>
<polygon fill="#00a800" stroke="#00a800" points="467.34,-51.17 461.52,-42.32 460.55,-52.87 467.34,-51.17"/>
</g>
<!-- h&#45;&gt;j -->
<g id="edge26" class="edge">
<title>h&#45;&gt;j</title>
<path fill="none" stroke="#00a800" d="M512.5,-195.14C524.96,-162.66 549.82,-97.87 564.44,-59.76"/>
<polygon fill="#00a800" stroke="#00a800" points="567.96,-61.35 568.28,-50.76 561.43,-58.84 567.96,-61.35"/>
</g>
<!-- h&#45;&gt;k -->
<g id="edge27" class="edge">
<title>h&#45;&gt;k</title>
<path fill="none" stroke="#00a800" d="M526.64,-202.37C553.13,-187.02 598.07,-161 628.12,-143.6"/>
<polygon fill="#00a800" stroke="#00a800" points="629.41,-146.31 636.31,-138.27 625.91,-140.26 629.41,-146.31"/>
</g>
<!-- h&#45;&gt;l -->
<g id="edge28" class="edge">
<title>h&#45;&gt;l</title>
<path fill="none" stroke="#00a800" d="M507.25,-235.52C511.57,-273.13 520.78,-353.22 525.9,-397.79"/>
<polygon fill="#00a800" stroke="#00a800" points="522.52,-398.04 527.13,-407.57 529.47,-397.24 522.52,-398.04"/>
</g>
<!-- h&#45;&gt;m -->
<g id="edge29" class="edge">
<title>h&#45;&gt;m</title>
<path fill="none" stroke="#00a800" d="M528.99,-224.8C547.8,-225.45 574.03,-226.36 595.01,-227.09"/>
<polygon fill="#00a800" stroke="#00a800" points="594.62,-230.61 604.73,-227.46 594.86,-223.61 594.62,-230.61"/>
</g>
<!-- h&#45;&gt;n -->
<g id="edge30" class="edge">
<title>h&#45;&gt;n</title>
<path fill="none" stroke="#00a800" d="M521.8,-231.22C547.48,-255.92 596.5,-303.08 626.6,-332.03"/>
<polygon fill="#00a800" stroke="#00a800" points="623.55,-333.92 633.18,-338.33 628.4,-328.87 623.55,-333.92"/>
</g>
<!-- m&#45;&gt;h -->
<g id="edge32" class="edge">
<title>m&#45;&gt;h</title>
<path fill="none" stroke="#007ea8" stroke-width="3" d="M602.52,-209.34C580.79,-208.58 550.83,-207.55 529.92,-206.82"/>
</g>
<!-- m&#45;&gt;i -->
<g id="edge31" class="edge">
<title>m&#45;&gt;i</title>
<path fill="none" stroke="#007ea8" stroke-width="3" d="M613.95,-200.98C580.64,-162.9 504.27,-75.6 471.65,-38.31"/>
</g>
<!-- m&#45;&gt;j -->
<g id="edge33" class="edge">
<title>m&#45;&gt;j</title>
<path fill="none" stroke="#007ea8" stroke-width="3" d="M624.09,-198.65C613.66,-162.11 592.09,-86.46 581.73,-50.14"/>
</g>
<!-- m&#45;&gt;k -->
<g id="edge34" class="edge">
<title>m&#45;&gt;k</title>
<path fill="none" stroke="#007ea8" stroke-width="3" d="M636.26,-198.99C641.12,-183.3 647.82,-161.69 652.67,-146"/>
</g>
<!-- m&#45;&gt;l -->
<g id="edge35" class="edge">
<title>m&#45;&gt;l</title>
<path fill="none" stroke="#007ea8" stroke-width="3" d="M620.88,-238.31C601.85,-278.1 558.01,-369.8 538.81,-409.96"/>
</g>
<!-- m&#45;&gt;n -->
<g id="edge36" class="edge">
<title>m&#45;&gt;n</title>
<path fill="none" stroke="#007ea8" stroke-width="3" d="M633.31,-239.87C637.51,-265.78 644.69,-310.03 648.91,-336.01"/>
</g>
</g>
</svg>
