<?xml version="1.0" encoding="UTF-8" standalone="no"?>
<!DOCTYPE svg PUBLIC "-//W3C//DTD SVG 1.1//EN"
 "http://www.w3.org/Graphics/SVG/1.1/DTD/svg11.dtd">
<!-- Generated by graphviz version 8.0.5 (20230430.1635)
 -->
<!-- Title: G Pages: 1 -->
<svg width="170pt" height="188pt"
 viewBox="0.00 0.00 170.00 188.00" xmlns="http://www.w3.org/2000/svg" xmlns:xlink="http://www.w3.org/1999/xlink">
<g id="graph0" class="graph" transform="scale(1 1) rotate(0) translate(4 184)">
<title>G</title>
<polygon fill="white" stroke="none" points="-4,4 -4,-184 166,-184 166,4 -4,4"/>
<!-- a -->
<g id="node1" class="node">
<title>a</title>
<ellipse fill="none" stroke="#990000" cx="99" cy="-162" rx="27" ry="18"/>
<text text-anchor="middle" x="99" y="-155.82" font-family="Times,serif" font-size="14.00" fill="#990000">a</text>
</g>
<!-- b -->
<g id="node2" class="node">
<title>b</title>
<ellipse fill="none" stroke="#990000" cx="63" cy="-90" rx="27" ry="18"/>
<text text-anchor="middle" x="63" y="-83.83" font-family="Times,serif" font-size="14.00" fill="#990000">b</text>
</g>
<!-- a&#45;&gt;b -->
<g id="edge1" class="edge">
<title>a&#45;&gt;b</title>
<path fill="none" stroke="#000000" d="M90.65,-144.76C86.38,-136.46 81.08,-126.15 76.27,-116.79"/>
<polygon fill="#000000" stroke="#000000" points="78.99,-115.44 71.3,-108.15 72.77,-118.64 78.99,-115.44"/>
</g>
<!-- e -->
<g id="node5" class="node">
<title>e</title>
<ellipse fill="none" stroke="#990000" cx="135" cy="-90" rx="27" ry="18"/>
<text text-anchor="middle" x="135" y="-83.83" font-family="Times,serif" font-size="14.00" fill="#990000">e</text>
</g>
<!-- a&#45;&gt;e -->
<g id="edge4" class="edge">
<title>a&#45;&gt;e</title>
<path fill="none" stroke="#000000" d="M107.35,-144.76C111.62,-136.46 116.92,-126.15 121.73,-116.79"/>
<polygon fill="#000000" stroke="#000000" points="125.23,-118.64 126.7,-108.15 119.01,-115.44 125.23,-118.64"/>
</g>
<!-- c -->
<g id="node3" class="node">
<title>c</title>
<ellipse fill="none" stroke="#990000" cx="27" cy="-18" rx="27" ry="18"/>
<text text-anchor="middle" x="27" y="-11.82" font-family="Times,serif" font-size="14.00" fill="#990000">c</text>
</g>
<!-- b&#45;&gt;c -->
<g id="edge2" class="edge">
<title>b&#45;&gt;c</title>
<path fill="none" stroke="#000000" d="M54.65,-72.76C50.38,-64.46 45.08,-54.15 40.27,-44.79"/>
<polygon fill="#000000" stroke="#000000" points="42.99,-43.44 35.3,-36.15 36.77,-46.64 42.99,-43.44"/>
</g>
<!-- d -->
<g id="node4" class="node">
<title>d</title>
<ellipse fill="none" stroke="#990000" cx="99" cy="-18" rx="27" ry="18"/>
<text text-anchor="middle" x="99" y="-11.82" font-family="Times,serif" font-size="14.00" fill="#990000">d</text>
</g>
<!-- b&#45;&gt;d -->
<g id="edge3" class="edge">
<title>b&#45;&gt;d</title>
<path fill="none" stroke="#000000" d="M71.35,-72.76C75.62,-64.46 80.92,-54.15 85.73,-44.79"/>
<polygon fill="#000000" stroke="#000000" points="89.23,-46.64 90.7,-36.15 83.01,-43.44 89.23,-46.64"/>
</g>
</g>
</svg>
