<?xml version="1.0" encoding="UTF-8" standalone="no"?>
<!DOCTYPE svg PUBLIC "-//W3C//DTD SVG 1.1//EN"
 "http://www.w3.org/Graphics/SVG/1.1/DTD/svg11.dtd">
<!-- Generated by graphviz version 8.0.5 (0)
 -->
<!-- Title: G Pages: 1 -->
<svg width="748pt" height="291pt"
 viewBox="0.00 0.00 748.00 291.35" xmlns="http://www.w3.org/2000/svg" xmlns:xlink="http://www.w3.org/1999/xlink">
<g id="graph0" class="graph" transform="scale(1 1) rotate(0) translate(4 287.35)">
<title>G</title>
<polygon fill="white" stroke="none" points="-4,4 -4,-287.35 744,-287.35 744,4 -4,4"/>
<!-- core -->
<g id="node1" class="node">
<title>core</title>
<ellipse fill="none" stroke="#bd0015" cx="547.25" cy="-251.35" rx="32" ry="32"/>
<text text-anchor="middle" x="547.25" y="-248.55" font-family="Times,serif" font-size="14.00" fill="#bd0015">core</text>
</g>
<!-- machine -->
<g id="node2" class="node">
<title>machine</title>
<polygon fill="none" stroke="#00208f" points="206.37,-141.19 141.25,-158.7 76.14,-141.19 76.2,-112.85 206.31,-112.85 206.37,-141.19"/>
<text text-anchor="middle" x="141.25" y="-130.56" font-family="Times,serif" font-size="14.00" fill="#00208f">machine</text>
</g>
<!-- core&#45;&gt;machine -->
<g id="edge1" class="edge">
<title>core&#45;&gt;machine</title>
<polygon fill="#00208f" stroke="none" stroke-width="5" points="515.82,-243.16 506.41,-240.89 495.97,-238.34 484.59,-235.54 472.33,-232.5 459.27,-229.22 445.47,-225.72 431.02,-222.01 415.98,-218.11 400.42,-214.02 384.42,-209.75 368.05,-205.33 351.38,-200.76 334.49,-196.05 317.44,-191.21 300.3,-186.26 283.16,-181.21 266.08,-176.07 249.13,-170.86 232.39,-165.58 215.93,-160.24 214.11,-159.64 212.28,-159.03 210.44,-158.4 208.59,-157.77 206.73,-157.12 204.87,-156.47 203,-155.8 201.13,-155.13 199.26,-154.46 197.39,-153.78 195.53,-153.09 193.66,-152.4 191.81,-151.71 189.96,-151.02 188.13,-150.33 186.3,-149.63 184.49,-148.94 182.69,-148.25 180.91,-147.56 179.15,-146.87 177.37,-151.55 179.15,-152.21 180.94,-152.88 182.76,-153.54 184.59,-154.21 186.44,-154.89 188.29,-155.56 190.16,-156.23 192.03,-156.9 193.92,-157.56 195.8,-158.22 197.69,-158.88 199.59,-159.53 201.48,-160.18 203.37,-160.82 205.25,-161.45 207.14,-162.08 209.01,-162.69 210.88,-163.3 212.73,-163.89 214.58,-164.47 231.15,-169.58 247.99,-174.63 265.03,-179.61 282.2,-184.51 299.44,-189.32 316.65,-194.03 333.78,-198.62 350.75,-203.1 367.5,-207.43 383.93,-211.63 400,-215.66 415.62,-219.53 430.72,-223.22 445.22,-226.72 459.07,-230.03 472.18,-233.12 484.48,-235.99 495.9,-238.63 506.37,-241.02 515.82,-243.16 515.82,-243.16"/>
<text text-anchor="middle" x="361" y="-188.06" font-family="Times,serif" font-size="14.00" fill="#00208f">mean</text>
</g>
<!-- program -->
<g id="node3" class="node">
<title>program</title>
<polygon fill="none" stroke="#008a88" points="466.49,-162.36 343.62,-162.36 312.02,-104.36 434.89,-104.36 466.49,-162.36"/>
<text text-anchor="middle" x="389.25" y="-130.56" font-family="Times,serif" font-size="14.00" fill="#008a88">program</text>
</g>
<!-- core&#45;&gt;program -->
<g id="edge2" class="edge">
<title>core&#45;&gt;program</title>
<polygon fill="#008a88" stroke="none" stroke-width="5" points="521.87,-231.72 518.02,-228.76 513.98,-225.66 509.78,-222.43 505.42,-219.09 500.92,-215.63 496.31,-212.09 491.59,-208.47 486.8,-204.79 481.94,-201.06 477.03,-197.3 472.1,-193.51 467.15,-189.71 462.22,-185.92 457.3,-182.15 452.43,-178.41 447.62,-174.72 442.89,-171.09 438.25,-167.53 433.73,-164.05 429.34,-160.68 426.38,-164.71 430.91,-167.89 435.58,-171.17 440.36,-174.53 445.25,-177.95 450.21,-181.44 455.24,-184.96 460.31,-188.52 465.4,-192.1 470.51,-195.68 475.6,-199.25 480.66,-202.8 485.68,-206.32 490.63,-209.79 495.49,-213.21 500.25,-216.55 504.89,-219.8 509.39,-222.96 513.73,-226.01 517.9,-228.93 521.87,-231.72 521.87,-231.72"/>
<text text-anchor="middle" x="497" y="-188.06" font-family="Times,serif" font-size="14.00" fill="#008a88">mean</text>
</g>
<!-- signature -->
<g id="node4" class="node">
<title>signature</title>
<polygon fill="none" stroke="#aaaaaa" points="640.13,-145.36 560.38,-145.36 560.38,-121.36 640.13,-121.36 640.13,-145.36"/>
<polyline fill="none" stroke="#aaaaaa" points="563.38,-134.86 566.38,-131.86"/>
<polyline fill="none" stroke="#aaaaaa" points="563.38,-131.86 566.38,-134.86"/>
<polyline fill="none" stroke="#aaaaaa" points="563.38,-124.36 637.13,-124.36"/>
<text text-anchor="middle" x="600.25" y="-130.56" font-family="Times,serif" font-size="14.00" fill="#aaaaaa">signature</text>
</g>
<!-- core&#45;&gt;signature -->
<g id="edge11" class="edge">
<title>core&#45;&gt;signature</title>
<polygon fill="#bd0015" stroke="none" stroke-width="5" points="562.63,-222.72 564.05,-219.31 565.52,-215.81 567.03,-212.21 568.56,-208.54 570.12,-204.81 571.7,-201.04 573.29,-197.24 574.88,-193.42 576.48,-189.6 578.08,-185.79 579.66,-182.01 581.22,-178.27 582.76,-174.59 584.27,-170.97 585.75,-167.44 587.19,-164.01 588.57,-160.69 589.91,-157.5 591.18,-154.45 592.4,-151.56 592.4,-151.56 591,-154.37 589.53,-157.33 587.99,-160.43 586.39,-163.65 584.74,-166.98 583.03,-170.41 581.29,-173.92 579.51,-177.49 577.71,-181.12 575.89,-184.79 574.05,-188.49 572.21,-192.2 570.37,-195.91 568.53,-199.6 566.72,-203.26 564.92,-206.88 563.15,-210.44 561.42,-213.93 559.72,-217.34 558.08,-220.64 562.63,-222.72"/>
<text text-anchor="middle" x="596.5" y="-188.06" font-family="Times,serif" font-size="14.00" fill="#bd0015">grow</text>
</g>
<!-- test -->
<g id="node10" class="node">
<title>test</title>
<polygon fill="none" stroke="#ffaa00" points="699.25,-162.36 658.5,-133.36 699.25,-104.36 740,-133.36 699.25,-162.36"/>
<text text-anchor="middle" x="699.25" y="-130.56" font-family="Times,serif" font-size="14.00" fill="#ffaa00">test</text>
</g>
<!-- core&#45;&gt;test -->
<g id="edge10" class="edge">
<title>core&#45;&gt;test</title>
<polygon fill="#bd0015" stroke="none" stroke-width="5" points="574.93,-234.72 576.92,-233.29 578.95,-231.84 581.02,-230.35 583.12,-228.83 585.25,-227.29 587.41,-225.72 589.59,-224.13 591.78,-222.52 593.99,-220.9 596.21,-219.26 598.44,-217.61 600.67,-215.94 602.9,-214.27 605.12,-212.6 607.34,-210.92 609.54,-209.24 611.73,-207.56 613.9,-205.89 616.05,-204.22 618.17,-202.56 621.51,-199.92 624.87,-197.24 628.26,-194.51 631.66,-191.76 635.06,-188.98 638.45,-186.18 641.84,-183.38 645.2,-180.58 648.54,-177.79 651.83,-175.02 655.08,-172.26 658.28,-169.55 661.42,-166.87 664.49,-164.24 667.48,-161.67 670.39,-159.16 673.21,-156.72 675.92,-154.36 678.52,-152.1 681.01,-149.92 681.01,-149.92 678.44,-152 675.76,-154.17 672.96,-156.43 670.06,-158.76 667.06,-161.16 663.98,-163.62 660.82,-166.13 657.58,-168.69 654.29,-171.29 650.94,-173.92 647.54,-176.56 644.11,-179.23 640.65,-181.9 637.17,-184.57 633.68,-187.23 630.19,-189.88 626.7,-192.5 623.22,-195.1 619.77,-197.65 616.34,-200.15 614.17,-201.73 611.98,-203.31 609.76,-204.89 607.52,-206.48 605.26,-208.08 602.99,-209.67 600.71,-211.25 598.43,-212.83 596.15,-214.41 593.87,-215.97 591.6,-217.53 589.34,-219.06 587.09,-220.59 584.86,-222.09 582.66,-223.57 580.48,-225.03 578.33,-226.47 576.21,-227.87 574.14,-229.25 572.1,-230.6 574.93,-234.72"/>
<text text-anchor="middle" x="659.5" y="-188.06" font-family="Times,serif" font-size="14.00" fill="#bd0015">grow</text>
</g>
<!-- feature -->
<g id="node6" class="node">
<title>feature</title>
<ellipse fill="none" stroke="#00990d" cx="45.25" cy="-23.68" rx="45.25" ry="20.51"/>
<text text-anchor="middle" x="45.25" y="-20.88" font-family="Times,serif" font-size="14.00" fill="#00990d">feature</text>
</g>
<!-- machine&#45;&gt;feature -->
<g id="edge5" class="edge">
<title>machine&#45;&gt;feature</title>
<path fill="none" stroke="#00208f" stroke-width="3" d="M123.42,-112.36C105.75,-92.53 78.89,-62.4 61.71,-43.13"/>
<text text-anchor="middle" x="110.88" y="-73.06" font-family="Times,serif" font-size="14.00" fill="#00208f">has</text>
</g>
<!-- component -->
<g id="node7" class="node">
<title>component</title>
<polygon fill="none" stroke="#ff7aff" points="201.88,-41.68 108.63,-41.68 108.63,-37.68 104.63,-37.68 104.63,-33.68 108.63,-33.68 108.63,-13.68 104.63,-13.68 104.63,-9.68 108.63,-9.68 108.63,-5.68 201.88,-5.68 201.88,-41.68"/>
<polyline fill="none" stroke="#ff7aff" points="108.63,-37.68 112.63,-37.68 112.63,-33.68 108.63,-33.68"/>
<polyline fill="none" stroke="#ff7aff" points="108.63,-13.68 112.63,-13.68 112.63,-9.68 108.63,-9.68"/>
<text text-anchor="middle" x="155.25" y="-20.88" font-family="Times,serif" font-size="14.00" fill="#ff7aff">component</text>
</g>
<!-- machine&#45;&gt;component -->
<g id="edge4" class="edge">
<title>machine&#45;&gt;component</title>
<path fill="none" stroke="#00208f" stroke-width="3" d="M143.86,-112.36C146.48,-92.16 150.49,-61.29 152.99,-42.08"/>
<text text-anchor="middle" x="161.88" y="-73.06" font-family="Times,serif" font-size="14.00" fill="#00208f">has</text>
</g>
<!-- function -->
<g id="node9" class="node">
<title>function</title>
<polygon fill="none" stroke="#00a87d" points="368.47,-23.68 338.36,-47.36 278.15,-47.36 248.04,-23.68 278.15,0 338.36,0 368.47,-23.68"/>
<text text-anchor="middle" x="308.25" y="-20.88" font-family="Times,serif" font-size="14.00" fill="#00a87d">function</text>
</g>
<!-- program&#45;&gt;function -->
<g id="edge3" class="edge">
<title>program&#45;&gt;function</title>
<polygon fill="#00a87d" stroke="none" stroke-width="5" points="357.17,-103.92 356.38,-103.06 355.6,-102.19 354.82,-101.31 354.04,-100.43 353.26,-99.54 352.49,-98.65 351.72,-97.75 350.96,-96.85 350.21,-95.94 349.46,-95.04 348.71,-94.13 347.98,-93.21 347.25,-92.3 346.53,-91.38 345.83,-90.46 345.13,-89.54 344.44,-88.61 343.76,-87.69 343.09,-86.77 342.44,-85.84 341.16,-83.99 339.9,-82.11 338.65,-80.19 337.43,-78.24 336.22,-76.27 335.04,-74.28 333.87,-72.28 332.72,-70.26 331.6,-68.23 330.5,-66.2 329.42,-64.17 328.37,-62.14 327.34,-60.12 326.34,-58.11 325.36,-56.12 324.41,-54.15 323.48,-52.2 322.59,-50.28 321.72,-48.4 320.88,-46.54 316.41,-48.77 317.39,-50.57 318.4,-52.41 319.45,-54.29 320.52,-56.19 321.63,-58.11 322.77,-60.05 323.93,-62 325.12,-63.97 326.33,-65.94 327.57,-67.91 328.83,-69.88 330.12,-71.85 331.42,-73.8 332.75,-75.74 334.09,-77.67 335.46,-79.57 336.84,-81.44 338.24,-83.29 339.65,-85.1 341.07,-86.87 341.81,-87.76 342.55,-88.64 343.3,-89.52 344.06,-90.4 344.83,-91.28 345.61,-92.15 346.4,-93.02 347.2,-93.88 348,-94.75 348.81,-95.6 349.63,-96.46 350.45,-97.31 351.28,-98.16 352.11,-99 352.95,-99.83 353.79,-100.66 354.63,-101.49 355.48,-102.3 356.32,-103.12 357.17,-103.92 357.17,-103.92"/>
<text text-anchor="middle" x="361" y="-73.06" font-family="Times,serif" font-size="14.00" fill="#00a87d">mean</text>
</g>
<!-- file -->
<g id="node11" class="node">
<title>file</title>
<polygon fill="none" stroke="#000000" points="553.25,-41.68 505.25,-41.68 505.25,-5.68 559.25,-5.68 559.25,-35.68 553.25,-41.68"/>
<polyline fill="none" stroke="#000000" points="553.25,-41.68 553.25,-35.68"/>
<polyline fill="none" stroke="#000000" points="559.25,-35.68 553.25,-35.68"/>
<text text-anchor="middle" x="532.25" y="-20.88" font-family="Times,serif" font-size="14.00" fill="#000000">file</text>
</g>
<!-- program&#45;&gt;file -->
<g id="edge8" class="edge">
<title>program&#45;&gt;file</title>
<path fill="none" stroke="#008a88" stroke-width="2" stroke-dasharray="5,2" d="M411.19,-104.05C424.43,-87.19 439.48,-68.48 443.5,-65.36 458.23,-53.93 476.68,-44.81 492.94,-38.13"/>
<polygon fill="#008a88" stroke="#008a88" stroke-width="2" points="494.8,-41.39 502.85,-34.5 492.26,-34.86 494.8,-41.39"/>
<text text-anchor="middle" x="462.63" y="-73.06" font-family="Times,serif" font-size="14.00" fill="#008a88">make</text>
</g>
<!-- data -->
<g id="node12" class="node">
<title>data</title>
<path fill="none" stroke="#016450" d="M461.25,-39.99C461.25,-41.99 449.15,-43.62 434.25,-43.62 419.36,-43.62 407.25,-41.99 407.25,-39.99 407.25,-39.99 407.25,-7.37 407.25,-7.37 407.25,-5.37 419.36,-3.74 434.25,-3.74 449.15,-3.74 461.25,-5.37 461.25,-7.37 461.25,-7.37 461.25,-39.99 461.25,-39.99"/>
<path fill="none" stroke="#016450" d="M461.25,-39.99C461.25,-37.99 449.15,-36.37 434.25,-36.37 419.36,-36.37 407.25,-37.99 407.25,-39.99"/>
<text text-anchor="middle" x="434.25" y="-20.88" font-family="Times,serif" font-size="14.00" fill="#016450">data</text>
</g>
<!-- program&#45;&gt;data -->
<g id="edge9" class="edge">
<title>program&#45;&gt;data</title>
<path fill="none" stroke="#008a88" stroke-width="2" stroke-dasharray="5,2" d="M383.09,-103.87C381.76,-91.52 382.1,-77.22 387.5,-65.36 389.93,-60.04 393.43,-55.14 397.44,-50.73"/>
<polygon fill="#008a88" stroke="#008a88" stroke-width="2" points="399.95,-53.28 404.82,-43.87 395.15,-48.19 399.95,-53.28"/>
<text text-anchor="middle" x="406.63" y="-73.06" font-family="Times,serif" font-size="14.00" fill="#008a88">make</text>
</g>
<!-- note -->
<g id="node5" class="node">
<title>note</title>
<polygon fill="none" stroke="#aaaa00" points="262.46,-112.9 264.58,-113.01 266.68,-113.18 268.75,-113.4 270.78,-113.68 272.77,-114.01 274.7,-114.4 276.56,-114.84 278.36,-115.32 280.08,-115.86 281.72,-116.45 283.27,-117.08 284.73,-117.75 286.09,-118.47 287.34,-119.23 288.5,-120.03 289.54,-120.86 290.47,-121.73 291.3,-122.64 292,-123.57 292.6,-124.52 293.08,-125.5 293.45,-126.51 293.71,-127.53 293.85,-128.57 293.89,-129.62 293.83,-130.68 293.66,-131.75 293.39,-132.82 293.03,-133.89 292.58,-134.97 292.04,-136.04 291.42,-137.1 290.72,-138.15 289.95,-139.18 289.1,-140.21 288.2,-141.21 287.23,-142.19 286.21,-143.15 285.14,-144.08 284.03,-144.98 282.87,-145.85 281.68,-146.68 280.45,-147.48 279.19,-148.24 277.91,-148.96 276.6,-149.64 275.27,-150.27 273.93,-150.85 272.57,-151.39 271.2,-151.88 269.81,-152.31 268.42,-152.7 267.02,-153.03 265.62,-153.31 264.21,-153.53 262.8,-153.7 261.38,-153.81 259.96,-153.87 258.55,-153.87 257.13,-153.81 255.71,-153.7 254.3,-153.53 252.89,-153.31 251.49,-153.03 250.09,-152.7 248.7,-152.31 247.31,-151.88 245.94,-151.39 244.58,-150.85 243.24,-150.27 241.91,-149.64 240.6,-148.96 239.32,-148.24 238.06,-147.48 236.83,-146.68 235.64,-145.85 234.48,-144.98 233.37,-144.08 232.3,-143.15 231.28,-142.19 230.31,-141.21 229.41,-140.21 228.56,-139.18 227.79,-138.15 227.09,-137.1 226.47,-136.04 225.93,-134.97 225.48,-133.89 225.12,-132.82 224.85,-131.75 224.68,-130.68 224.62,-129.62 224.66,-128.57 224.8,-127.53 225.06,-126.51 225.43,-125.5 225.91,-124.52 226.51,-123.57 227.21,-122.64 228.04,-121.73 228.97,-120.86 230.01,-120.03 231.17,-119.23 232.42,-118.47 233.78,-117.75 235.24,-117.08 236.79,-116.45 238.43,-115.86 240.15,-115.32 241.95,-114.84 243.81,-114.4 245.74,-114.01 247.73,-113.68 249.76,-113.4 251.83,-113.18 253.93,-113.01 256.05,-112.9 258.18,-112.84 260.32,-112.84 262.46,-112.9"/>
<text text-anchor="middle" x="259.25" y="-130.56" font-family="Times,serif" font-size="14.00" fill="#aaaa00">note</text>
</g>
<!-- note&#45;&gt;function -->
<g id="edge12" class="edge">
<title>note&#45;&gt;function</title>
<polygon fill="#aaaa00" stroke="none" stroke-width="5" points="260.15,-112.58 260.04,-110.48 259.95,-108.33 259.9,-106.12 259.87,-103.85 259.88,-101.55 259.92,-99.2 260.01,-96.82 260.14,-94.41 260.32,-91.98 260.56,-89.54 260.84,-87.08 261.19,-84.63 261.59,-82.18 262.07,-79.74 262.61,-77.32 263.22,-74.93 263.9,-72.56 264.67,-70.23 265.52,-67.94 266.46,-65.69 266.89,-64.73 267.35,-63.77 267.83,-62.82 268.33,-61.87 268.86,-60.93 269.4,-60 269.95,-59.07 270.53,-58.15 271.12,-57.23 271.73,-56.33 272.35,-55.43 272.99,-54.53 273.64,-53.65 274.3,-52.77 274.97,-51.91 275.66,-51.05 276.35,-50.2 277.06,-49.36 277.77,-48.53 278.5,-47.71 278.5,-47.71 277.72,-48.48 276.94,-49.26 276.18,-50.05 275.42,-50.85 274.67,-51.66 273.94,-52.48 273.21,-53.31 272.49,-54.15 271.79,-55 271.1,-55.86 270.42,-56.73 269.75,-57.62 269.11,-58.51 268.47,-59.41 267.86,-60.32 267.26,-61.24 266.68,-62.17 266.12,-63.11 265.58,-64.06 265.05,-65.02 263.93,-67.25 262.89,-69.53 261.94,-71.87 261.06,-74.25 260.25,-76.67 259.52,-79.12 258.86,-81.59 258.26,-84.07 257.73,-86.57 257.25,-89.06 256.84,-91.56 256.47,-94.04 256.16,-96.5 255.9,-98.94 255.68,-101.35 255.5,-103.71 255.36,-106.04 255.26,-108.31 255.19,-110.53 255.15,-112.66 260.15,-112.58"/>
<text text-anchor="middle" x="283.5" y="-73.06" font-family="Times,serif" font-size="14.00" fill="#aaaa00">grow</text>
</g>
<!-- folder -->
<g id="node8" class="node">
<title>folder</title>
<polygon fill="none" stroke="#0addff" points="541.88,-151.36 538.88,-155.36 517.88,-155.36 514.88,-151.36 484.63,-151.36 484.63,-115.36 541.88,-115.36 541.88,-151.36"/>
<text text-anchor="middle" x="513.25" y="-130.56" font-family="Times,serif" font-size="14.00" fill="#0addff">folder</text>
</g>
<!-- folder&#45;&gt;file -->
<g id="edge6" class="edge">
<title>folder&#45;&gt;file</title>
<path fill="none" stroke="#0addff" d="M521.07,-115.26C524.56,-106.76 528.33,-96.22 530.25,-86.36 532.37,-75.55 533.11,-63.47 533.24,-52.89"/>
<polygon fill="#0addff" stroke="#0addff" points="536.73,-53.1 533.17,-43.13 529.73,-53.15 536.73,-53.1"/>
<text text-anchor="middle" x="544.88" y="-73.06" font-family="Times,serif" font-size="14.00" fill="#0addff">use</text>
</g>
<!-- folder&#45;&gt;data -->
<g id="edge7" class="edge">
<title>folder&#45;&gt;data</title>
<path fill="none" stroke="#0addff" d="M508.27,-114.92C503.61,-100.64 495.66,-80.41 484.25,-65.36 479.9,-59.6 474.56,-54.17 469.02,-49.25"/>
<polygon fill="#0addff" stroke="#0addff" points="471.76,-46.15 461.83,-42.45 467.29,-51.53 471.76,-46.15"/>
<text text-anchor="middle" x="508.88" y="-73.06" font-family="Times,serif" font-size="14.00" fill="#0addff">use</text>
</g>
</g>
</svg>
